<svg xmlns="http://www.w3.org/2000/svg" xml:space="preserve" viewBox="0 0 456 476"><path fill="#60FC57" d="M149.9 281.97a28 28 0 0 1 2.5-4.63c1.2.28 2.4.81 2.46 1.46.6 5.46 3.2 4.86 6.68 2.49 2.3-1.57 4.58-3.44 7.16-4.32 5.91-2.01 9.63-9.5 17.33-6.99 5.87.26.5-4.38 2.5-5.91.25-.19-.34-1.47-.53-2.66 0-.42.09-.5.46-.48 4.17-1.56 8.32-2.61 11.68-4.85 6.54-4.35 12.64-9.35 18.9-14.1 13.54-10.27 26.98-20.65 40.64-30.73 3.06-2.26 6.7-4.23 10.37-5.05 6.17-1.38 9.52-5.68 13.32-10.21 1.12-1.24 1.87-2.47 2.63-3.7 1.12-1.7 2.23-3.4 3.9-4.9 2.58 1.21 5.84 3.56 6.43 3.01 4.3-3.99 9.17-6.77 14.47-9.19 1.62-.74 2.28-3.84 3.12-5.96 2.41-6.03.08-11.28-2.97-16.36.03-.35.19-.61 1.06-.82 2.72.3 4.85.61 7.34.93l1.74.04a21 21 0 0 1-1.56 3.68 93 93 0 0 0-3.38 8.05c4.19-.65 7.44-.2 6.86-4.6.46.22.93.46 1.73 1.03.95.74 1.56 1.13 2.18 1.53l1.08-2.54c.6-.18 1.21-.37 2.19-.72 3.2 3.04-.03 4.07-1.84 4.7-3.5 1.2-4.64 3.44-4.64 6.99a45 45 0 0 0-3.7 6.28c-.77 2.12-1.1 4.74-2.38 5.33-3.32 1.55-7.06 2.22-10.97 3.27a71 71 0 0 0-7.04 5.7c-5.64 5.42-10.7 11.51-18.97 13.36-2.4.53-4.46 2.6-6.68 3.96a3 3 0 0 1-1.89-1.07c-1.74-5.68-6.28-.72-8.48-3.75l-1.06 1.46a33 33 0 0 1 3.43 3.74 327 327 0 0 1-7.81 14.7c-.26.46-1.19.5-1.75.82-2.26 1.27-4.65 2.37-6.7 3.9-4.9 3.67-9.52 7.72-14.48 11.3a918 918 0 0 1-29.63 20.65c-3.46 2.29-7.63 3.5-11.48 5.2l-.79-1.26-.6 4.57c-3.43.59-6.56.42-8.92 1.7-4.15 2.23-7.78 5.4-11.7 8.08-9 6.14-17.87 12.48-27.12 18.2-3.94 2.44-6.38 8.94-12.9 5.72-.15-1.64-.3-3.27-.83-5.4-1.34-1.7-2.3-2.9-3.38-4.24.72-.28 1.87-1.05 3.07-1.15 4.34-.37 7.4-1.7 8.59-6.61.56-2.35 2.92-4.14 6.37-2.58 1.15.52 3.82-.84 4.91-2.1 1.24-1.42 2.71-3.96-.93-4.97"/><path fill="#B8FE43" d="M187.97 127.93c-.54-4.75 2.26-8.07 4.62-11.76 2.17-3.37 3.31-7.38 5.24-10.94.98-1.82 3.1-3.05 4-4.9 3.8-7.8 9.37-14.05 16.22-19.2 5.58-4.21 10.35-4.18 16.2-.68 1.43.86 3.34.93 5.39 1.93.12 3.72 2.2 3.73 4.42 3.58 0 0-.05.04-.04.38 3 5.45 5.99 10.56 8.98 16.06-.17 4.26-1.41 7.38-5.1 9.36-7.83 4.2-15.58 8.54-23.3 12.91-4.72 2.68-9.19 5.84-14.06 8.18-2.95 1.42-4.84 2.94-5.63 6.24-1.08 4.5-6.02 7.67-10.2 6.82-4.71-.95-5.43-4.7-5.73-8.7-.24-3.1-.67-6.19-1.01-9.28"/><path fill="#31F870" d="M301.81 275c.4.76.79 1.53.94 2.83-2.23 8.12-9.28 10.32-15.03 13.96-1.47-3.1-2.91-3.82-5.17-1.04a76 76 0 0 1-6.92 7.26c-1.99.78-3.71 1.38-5.2 2.35-10.33 6.73-20.92 12.91-30.64 20.74-11.65 9.38-24.98 16.68-37.58 24.87-.74-8.02-1.47-16.05-2.21-24.9-.02-1.56-.02-2.29.23-3.04.42-.03.6-.04.77.21.02.44.03.62.14.99.3.45.53.62 1.1.99.9.44 1.68.93 2.15.72 6.36-2.9 12.95-5.43 18.96-8.95 9.65-5.67 18.84-12.1 28.37-18 4.9-3.03 10.06-5.63 15.15-8.35 3.34-1.78 6.7-3.54 10.15-5.1 3.72-1.7 7.76-2.78 11.26-4.82 4.55-2.65 8.62-7.38 13.53-.72"/><path fill="#58FC58" d="M131.79 309.15c6.82 3.09 9.26-3.4 13.2-5.85 9.25-5.72 18.13-12.06 27.11-18.2 3.93-2.68 7.56-5.85 11.71-8.09 2.36-1.27 5.49-1.1 8.92-1.7l.6-4.56.8 1.26c3.84-1.7 8-2.91 11.47-5.2a918 918 0 0 0 29.63-20.66c4.96-3.57 9.57-7.62 14.47-11.28 2.06-1.54 4.45-2.64 6.7-3.91.57-.32 1.5-.36 1.76-.82 2.67-4.73 5.23-9.53 7.84-14.73.01-.42.06-.47.35-.44l1.42.05c.72 7.37 1.44 14.75 1.87 22.69-.74.8-1.18 1.04-1.63.86.34-4.26-.3-7.59-3.53-8.97-4.2 3.77-7.74 7.39-11.72 10.45a698 698 0 0 1-23.88 17.52c-9.04 6.36-18.05 12.8-27.46 18.59-9.22 5.68-18.92 10.59-28.82 15.83-4.68.28-9.4 5.38-10.95 11.05a13 13 0 0 0-2.63 3.4c0 1.8 0 3.18-.38 4.57-2.13 2.01-3.9 4.02-6.01 5.98-3.4-1.31-7.36-4.43-9.32-3.47-4.64 2.28-9.14 5.93-10.25 11.7-1.01 5.26-3.47 7.57-8.93 7.84-1.39.07-2.75.67-4.13 1.03-4.12-2.22-6.57-5.5-5.92-10.34.6-4.55 5.41-8.73 10.96-9.63 3.09-.5 5.9-1.06 6.75-4.97"/><path fill="#A4FF42" d="M187.61 128.12a58 58 0 0 1 1.37 9.09c.3 4 1.02 7.75 5.73 8.7 4.18.85 9.12-2.32 10.2-6.82.8-3.3 2.68-4.82 5.63-6.24 4.87-2.34 9.34-5.5 14.06-8.18 7.72-4.37 15.47-8.72 23.3-12.9 3.69-1.99 4.93-5.11 5.36-9.37.43-.4.6-.4.77-.06.32 1.1.65 1.88 1.02 3.03.68 2.37 1.69 4.34 1.87 6.38.35 3.98 2.54 6.1 6.08 7.25l.05.31c.68.78 1.32 1.23 1.95 2.12 0 2.14 0 3.85-.05 5.96-.39 2.68-.14 5.29-1.2 7.16a18 18 0 0 1-5.87 6c-.47.3-3.37-2.4-4.56-4.13-1.3-1.87-1.58-4.46-2.95-6.25-.78-1.02-3.37-1.93-4.22-1.4a257 257 0 0 0-16.36 11.17c-8.6 6.33-16.98 12.97-25.65 19.2-2.5 1.8-5.51 3.13-7.96-1.01-.76-1.3-3.43-1.47-5.22-2.16-.31-1.38-.63-2.76-.72-4.57.56-.73.9-1.03 1.24-1.33l-.62-.53-.93 1.56c-.39-.29-1.08-.53-1.12-.86q-1.35-10.4-2.5-20.83c-.04-.32.61-.73 1.3-1.29"/><path fill="#39FA6B" d="M301.88 274.61c-4.98-6.27-9.05-1.54-13.6 1.11-3.5 2.04-7.54 3.12-11.26 4.81-3.44 1.57-6.8 3.33-10.15 5.1-5.09 2.73-10.26 5.33-15.15 8.36-9.53 5.9-18.72 12.33-28.37 18-6 3.52-12.6 6.05-18.96 8.95-.47.2-1.25-.28-2.26-.91-.57-.72-.8-.9-1.09-1 0-.17-.02-.35-.08-1.11-1.03-2.03-2-3.47-2.58-4.92 2.71-.72 5.34-.96 7.27-2.25q14.87-9.86 29.41-20.24c7.88-5.62 15.83-11.23 23.18-17.5 3.81-3.26 6.4-7.96 9.55-12l.9 7.4c5.96-3.52 11.43-7.06 17.18-10.06 3.12-1.62 10.01.8 11.7 4.13 1.87 3.7 2.95 7.81 4.31 12.13m-38.82 1.53c.78.23 2.1.85 2.24.65 1.23-1.74 2.25-3.64 3.43-5.65-3.6-.01-4.28.54-5.67 5"/><path fill="#0DDBD4" d="M377.51 384.1c-.58.9-1.16 1.8-2.34 2.74-.8-.02-1-.09-1.45-.33-1.72 1.3-3.2 2.78-4.99 4.4-5.1 3.5-9.88 6.86-15.03 10.21a675 675 0 0 0-21.7 9.27c-.9.4-1.37 1.7-2.37 2.58-.77.05-1.2.09-1.65-.12 0-.24-.03-.73-.01-1.13.24-1.5.1-2.99.76-3.66 5.2-5.21 5-11.02 2.52-17.43 2.91-1.48 5.57-2.72 8.21-4 9.22-4.47 18.7-8.55 26.02-16.57 3.36-2.43 6.38-4.78 9.79-7.1 3.21-1.7 6.03-3.43 8.85-5.14.92-.56 1.82-1.48 2.79-1.56 2.55-.22 5.13-.07 7.04-.07q-.94 5.53-2.01 12.13a28 28 0 0 1-3.39 4.53c-1.03.42-1.76.8-2.82 1.21a10 10 0 0 0-1.82 2.3c-.7.72-1.28 1.2-2.23 1.7a34 34 0 0 0-2.6 5s-.06-.05-.32.07c-.59.4-.92.69-1.25.97"/><path fill="#04DCA2" d="M274.02 383.96c4.22 1.56 8.43 3.13 12.53 5.26a12 12 0 0 1-3.88 2.77c-4.75 2.45-9.39 4.53-13.4 7.46-2.95 2.15-5.07 5.42-7.58 8.18-3.58 3.94-.1 6.96 1.3 10.26-10.74-3.9-21.3-8.14-29.68-16.72a113 113 0 0 0-5.87-9.27c4.04-2.55 7.97-5.1 11.97-7.54 6.95-4.24 13.3-10.68 22.69-6.4.54.25 1.31 0 1.98 0 0 0-.07.03-.02.34 1.78 2.02 3.3 4.05 5.3 5.33 1.15.74 3.08.26 4.66.33"/><path fill="#8BFE48" d="m164.1 183.96 6.77 6.35c.61.58 1.44 1.76 1.8 1.63a107 107 0 0 0 10.56-4.57 9 9 0 0 1 1.75-1.2c.16-.05.32-.1.74.17-.22 5.59-3.33 7.16-8.78 6.44.62 1.7 1.5 3.66 2.47 3.7 3.33.18 6.72-.1 10.03-.6 9.99-1.54 18.86-5.85 26.91-11.77a621 621 0 0 0 21.93-17.02c4.57-3.69 8.76-7.84 13.28-11.6 4.37-3.62 8.95-7 13.44-10.24v1.08c0 .78 0 1.22-.36 1.71a30 30 0 0 0-3.69 4.1c-3.78 5.2-6.8 11.2-11.43 15.47-7.37 6.79-15.52 12.85-23.87 18.41-8.22 5.47-17.03 10.07-25.72 14.78-2.58 1.4-5.7 2.84-8.48 2.7a45 45 0 0 0-21.44 3.9c-4.47 2.01-8.66 2.97-12.9-.65-1.24-1.05-3.25-1.2-4.91-1.76a91 91 0 0 1-4.02-9.74c.6-.58 1.3-.68 1.43-.45 2.05 3.5 5.05 4.77 8.65 2.98 4.95-2.46 6.12-5.94 4.55-10.7-.26-.81.83-2.07 1.3-3.12"/><path fill="#7DFD4A" d="M265 148c0-.45 0-.9.39-1.67 1.67-.36 2.95-.38 4.23-.4-2.56 5.86-4.96 11.8-7.74 17.56-1.66 3.42-3.92 6.54-6.35 10.26-2.22 3.78-2.64 6.4 2.48 6.22l-.05.38c-.23 1-.74 1.74-.57 2.26 1.9 5.7-1.8 7.42-6.04 9.34-5.25 2.37-10.55 4.9-15.23 8.2-10.88 7.67-21.32 15.97-32.11 23.78-5.35 3.87-9.28 2.02-11.14-4.55-.19-.68-1.89-.93-2.89-1.38v-4.85c-6.7 2.25-13.04 4.57-19.5 6.48-4.38 1.3-8.4.13-11.57-3.3a12 12 0 0 1-2.43-3.77c5.72 1 10.8 3.74 16.56.45 3.37-1.92 7.5-2.47 11.3-3.63 4.05-1.25 7.77-1.49 9.54 3.4 4.59-1.44 9.23-2.04 12.92-4.24 8.22-4.9 15.95-10.63 23.93-15.94 2.17-1.45 4.7-2.4 6.77-3.97 3.99-3.04 8.76-5.7 11.38-9.72 4.08-6.24 5.74-14.06 12.47-18.58.34-.22.38-.87.58-1.31 1-2.16 2.2-4.25 2.91-6.5.44-1.39.13-3 .15-4.52"/><path fill="#91FF46" d="M265 145c-4.49 3.49-9.07 6.87-13.44 10.5-4.52 3.75-8.71 7.9-13.28 11.59a621 621 0 0 1-21.93 17.02c-8.05 5.92-16.92 10.23-26.9 11.77-3.32.5-6.71.78-10.04.6-.98-.04-1.85-2-2.47-3.7 5.45.72 8.56-.85 9.03-6.5 3.68-2.34 7.36-4.3 11.05-6.24 1.53-.8 3.09-1.52 4.56-2.24-.5-1.5-.95-2.86-1.1-4.68 2.33.5 4.36 1.45 6.76 2.56 2.04-1.03 4.91-1.85 6.99-3.61a978 978 0 0 0 31.81-27.83c3.15-2.9 5.52-3.61 9.01-1.25 3.78 2.56 7.14 2.01 9.93-1.76.43-.59 1.33-.83 2.02-.88a63 63 0 0 1-2 4.64"/><path fill="#49FE60" d="m268.01 239 1.56-.85a88 88 0 0 1-.11 13.39c-2.86 2.02-5.4 3.42-7.63 5.2-7.96 6.33-15.5 13.25-23.79 19.1-10.91 7.72-22.36 14.68-33.62 21.91-5.1 3.28-9.76 7.59-16.76 7.12a109 109 0 0 1-8.25-8.87c11.1.94 17.84-7.36 26.17-11.56 9.51-4.8 17.83-11.94 26.7-18 8.85-6.06 17.89-11.84 26.54-18.15 3.47-2.54 6.15-6.16 9.2-9.3"/><path fill="#2FF37A" d="M287.98 292.02c5.49-3.87 12.54-6.07 14.82-13.86a64 64 0 0 1 3.43 6.78l6.14-3.6c1.66-.14 2.76.05 3.98.25l1.3-3.85c2.75-.23 5.87.43 6.9-.74 2.68-3.05 6.33-6 5.47-10.96 5.23 6.06 4.7 11.06-2.03 16a36 36 0 0 0-5.59 5.17c-1.51 1.7-2.65 3.74-4.87 6.96 4.61-.85 8.13-1.5 12-1.81-4.96 3.77-10.41 7-15.51 10.7-5.18 3.77-11.7 7.08-14.56 12.28-3.46 6.34-8.81 9.97-13.77 14.66h-1.48c-.57-4.75.09-8.53 4.67-11.72 4.42-3.08 5.63-8.14 3.07-14.22a68 68 0 0 0-3.99-7s.02-.04.01-.45z"/><path fill="#9BFF45" d="M267 140c-.69.4-1.59.64-2.02 1.23-2.79 3.77-6.15 4.32-9.93 1.76-3.49-2.36-5.86-1.66-9.01 1.25a978 978 0 0 1-31.81 27.83c-2.08 1.76-4.95 2.58-6.99 3.6-2.4-1.1-4.43-2.05-6.75-2.86a326 326 0 0 1-9.38-16.48c1.64.33 4.3.5 5.07 1.8 2.45 4.14 5.45 2.8 7.96 1 8.67-6.22 17.05-12.86 25.65-19.19a257 257 0 0 1 16.36-11.17c.85-.53 3.44.38 4.22 1.4 1.37 1.79 1.65 4.38 2.95 6.25 1.2 1.72 4.09 4.43 4.56 4.13a18 18 0 0 0 5.87-6c1.06-1.87.81-4.48 1.59-7.06A111 111 0 0 1 267 140"/><path fill="#68F650" d="M149.57 282.16c3.96.82 2.49 3.36 1.25 4.78-1.1 1.26-3.76 2.62-4.9 2.1-3.46-1.56-5.82.23-6.38 2.58-1.18 4.91-4.25 6.24-8.59 6.6-1.2.1-2.35.88-3.07 1.16 1.07 1.34 2.04 2.54 3.07 4.09-6.69.73-13.43 1.09-20.16 1.53-4.7.31-6.94-3.27-8.38-6.45-1.04-2.3-.83-6.26.54-8.36 3.94-6.04 11.74-6.66 17.84-2.18 5.95 4.36 6.13 4.41 14.66 3.76-2.82-4.02-2.39-9.34-9.3-10.12-6.05-.68-8.2-10.73-3.81-15.17 6.77-6.88 13.57-6.15 18.46 2.14.77 1.3 1.56 3.45 1 4.52-2.13 4.14 1.73 6.49 2.62 9.66.07.27 3.14-.29 5.15-.64"/><path fill="#11E88C" d="M249.82 339c.4 5.6.63 11.21 1.33 16.77.2 1.6 1.73 3.04 2.43 5.13-1.1 1.72-1.8 3.14-2.92 3.96q-10.34 7.52-20.87 14.79c-4.22 2.91-8.8 4.4-13.93 2.4q-3.94-7.05-7.83-14.13a18 18 0 0 1-1.71-4.37c.84-.2 1.46-.03 1.97-.2 1.63-.54 3.18-1.32 4.82-1.77 2.14-.6 4.76-.35 6.45-1.5 9.22-6.3 18.22-12.93 27.31-19.42.91-.65 1.96-1.1 2.95-1.66"/><path fill="#40FC65" d="M187.96 305c6.7.34 11.37-3.97 16.46-7.25 11.26-7.23 22.71-14.19 33.62-21.9 8.29-5.86 15.83-12.78 23.79-19.11 2.23-1.78 4.77-3.18 7.53-4.75a53 53 0 0 1-1.38 8.66c-3.33 4.4-5.93 9.1-9.74 12.36-7.35 6.27-15.3 11.88-23.18 17.5q-14.54 10.38-29.4 20.24c-1.94 1.29-4.57 1.53-7.63 2.21-3.86-2.67-6.96-5.31-10.07-7.95"/><path fill="#9EFC42" d="M122.95 174.12c-.42-.04-.84-.08-1.84-.37a23 23 0 0 0-2.96-.77c-7.57-1.34-8.64-2.92-7.3-10.43.14-.79-.6-1.73-.93-2.6 2.92-4.27 7.06-5.48 11.1-2.89a40 40 0 0 1 6.66 5.49c3.02 3.04 6.22 4.22 10.96 1.5-2.73-2.82-5.64-5.27-7.88-8.23-6.25-8.22-6.4-7.53.84-15.78.4.02.51.12.47.45-4.31 6.7-4.06 7.52 1.9 12.59 2.58 2.18 6.25 4.78 6.56 7.52.51 4.54-1.29 9.34-2.33 15.22 2.24-1 4.91-1.72 6.9-3.3.73-.6-.01-3.25-.32-4.91-.48-2.57-1.16-5.1-1.41-7.58 1.15.98 1.9 1.96 2.75 2.84.97.99 2.02 1.88 3.04 2.82l1.73-2.76c3.42.75 3.33-1.48 3.19-3.75-.3-4.54 1.4-7.87 6.25-9.36 1.6.92 2.67 1.92 3.93 2.37 5.09 1.81 6.1 3.62 3.24 8.28-1.56 2.55-4.3 4.38-6.88 6.54a24 24 0 0 0-3.62 4.24c0 .25 0 .75-.35.81-1.18 1.42-2.25 2.7-2.8 4.16-2.32 6.24-5.61 8.17-12.1 6.92-2.24-.44-4.51-.75-7.03-1.26-.8-2.44 1.15-5.79-3.4-6.37-2.79-.36-4.94-4.47-8.37-1.4"/><path fill="#70FF4F" d="M187.22 230.1c.03-.62.06-1.25.66-1.8 4.25 5.94 9.15 7.58 14.04 4.33 11.01-7.3 22.4-14.15 32.76-22.3 8.4-6.62 16.73-12.92 26.63-17.13 2.83-1.2 6.22-2.88 6.07-7.19l2.67-.04s.48.08.76.48c1.58 1.78 2.89 3.17 4.19 4.93-.21 4.7-3.84 5.8-6.8 7.41-4.51 2.47-9.42 4.32-13.58 7.26-10.62 7.5-20.85 15.55-31.38 23.17-6.7 4.85-14.09 8.82-20.4 14.1-4.9 4.07-8.77 7.08-13.77.75-.14-.17-.64-.06-1-.4 0-.78.02-1.23.3-1.72.58-.36.87-.68 1.17-1a4.5 4.5 0 0 1-1.48-1.39c-.3-3.45-.56-6.45-.84-9.45"/><path fill="#85FF4A" d="M264.64 148.04c.33 1.47.64 3.1.2 4.48-.7 2.25-1.92 4.34-2.9 6.5-.21.44-.25 1.09-.59 1.31-6.73 4.52-8.39 12.34-12.47 18.58-2.62 4.01-7.4 6.68-11.38 9.72-2.06 1.57-4.6 2.52-6.77 3.97-7.98 5.31-15.7 11.04-23.93 15.94-3.69 2.2-8.33 2.8-12.92 4.24-1.77-4.89-5.49-4.65-9.54-3.4-3.8 1.16-7.93 1.71-11.3 3.63-5.77 3.29-10.84.55-16.5-.8a49 49 0 0 1-4.41-6.84c1.73.18 3.74.33 4.97 1.38 4.25 3.62 8.44 2.66 12.91.65a45 45 0 0 1 21.44-3.9c2.78.14 5.9-1.3 8.48-2.7 8.7-4.71 17.5-9.3 25.72-14.78 8.35-5.56 16.5-11.62 23.87-18.4 4.63-4.27 7.65-10.29 11.43-15.48a30 30 0 0 1 3.7-4.1"/><path fill="#24EF85" d="M285.99 330c4.66-4.7 10-8.32 13.47-14.66 2.85-5.2 9.38-8.5 14.56-12.27 5.1-3.71 10.55-6.94 15.9-10.73.06-.35.08-.35.4-.36a9 9 0 0 0 1.63-1.97c2.9-4.52 7.63-4.82 11.8-3.69 3.73 1 6.58 3.74 6.36 8.85-.43 9.85-5.77 13.18-15.01 9.3-2.56-1.08-5.9-.7-8.82-.37-2.33.26-4.56 1.45-7.18 2.35 2.68 3.44 3.9 8.14 9.75 7.86 1.45-.07 2.98 1.66 4.59 3.03-5.46 3.78-9.68.13-13.98-2.45-2.67-1.6-5-2.7-7.8-.04-7-1.67-10.14 1.03-9.71 7.61.24 3.85.07 7.72.08 11.58 0 0-.03-.04-.4.01-4.76 2.08-9.09 3.47-13.2-.65-.47-.47-1.59-.27-2.4-.38 0 0-.05-.02-.04-.41z"/><path fill="#02DCAF" d="M263.4 417.93c-1.82-3.34-5.3-6.36-1.7-10.3 2.5-2.76 4.62-6.03 7.57-8.18 4.01-2.93 8.65-5.01 13.8-7.46 4.5 1 8.22 2.01 11.92 3.4a430 430 0 0 1-8.38 23.65c-2.1.68-3.82 1.31-5.74 2.02-.48.24-.69.45-.83.73q-6.26-1.53-12.54-3.04c-1.22-.29-2.46-.51-4.1-.82"/><path fill="#8DFF5A" d="M67.07 134.06c-.78 1.58-1.55 3.15-3 4.87-1.84 1.42-3.22 2.55-4.13 3.99-3.36 5.32-6.56 10.75-10.18 16.15-1.39 1.02-2.73 1.85-3.4 3.06-3.34 6.1-7.23 11.3-15.24 10.49.36-2.1.76-3.82 1.44-5.6.7-1.05 1.1-2.02 1.52-3.33.06-.75.11-1.18.46-1.67a12 12 0 0 0 1.55-3.33c.04-.75.09-1.19.46-1.7a30.7 30.7 0 0 0 8.7-17.2c1.11-1.72 1.97-3.24 3.17-4.8a56 56 0 0 0 4.42-6.42c0-.2.08-.6.43-.64a7 7 0 0 0 1.6-2.45 8 8 0 0 1 1.48-2.49c1.1-.35 1.87-.67 3-.95 3.9 3 7.27 4.13 10.7-.32.77-1 2.61-1.17 3.92-1.38-.36 1.44-.67 2.53-.98 3.64.01.02-.02 0-.36.05a53 53 0 0 0-4.63 6.43c-.35 1.43-.64 2.51-.93 3.6"/><path fill="#25F279" d="M202.15 346.23c12.66-8.45 25.99-15.75 37.64-25.13 9.72-7.83 20.3-14.01 30.64-20.74a17 17 0 0 1 5.05-2.05c-1.05 1.58-2.43 2.77-3.54 4.17-1.42 1.78-2.62 3.73-3.91 5.6 0 0-.06.45-.49.68-2.8 1.92-5.15 3.6-7.51 5.3-.07.5-.08 1.4-.2 1.41-3.85.43-5.58 3.21-7.79 6.41-2.52 1.57-4.55 2.8-6.12 4.45-2 2.12-3.17 5.24-5.48 6.77-7.67 5.08-15.71 9.6-23.57 14.4-6.03 3.69-9.16 3.63-14.62-.5a2 2 0 0 1-.1-.77"/><path fill="#1EED7E" d="M202.17 347.41c5.54 3.72 8.67 3.78 14.7.1 7.86-4.82 15.9-9.33 23.57-14.41 2.3-1.53 3.49-4.65 5.48-6.77 1.57-1.66 3.6-2.88 5.8-4.3a227 227 0 0 1-1.83 16.54c-1.06.98-2.1 1.44-3.02 2.1-9.1 6.48-18.09 13.1-27.3 19.4-1.7 1.16-4.32.92-6.46 1.5-1.64.46-3.19 1.24-4.82 1.78-.5.17-1.13 0-1.92-.18-1.22-3.33-2.3-6.47-3.2-9.67-.5-1.85-.72-3.78-1-6.09"/><path fill="#77FE4E" d="M267 186.02c.53 4.3-2.86 5.97-5.7 7.18-9.89 4.2-18.22 10.51-26.62 17.13-10.36 8.15-21.75 15-32.76 22.3-4.89 3.25-9.8 1.6-13.74-4.46.18-3.41.64-6.6 1.45-9.99 1.35.27 3.05.52 3.24 1.2 1.86 6.57 5.79 8.42 11.14 4.55 10.79-7.8 21.23-16.1 32.1-23.78 4.69-3.3 9.99-5.83 15.24-8.2 4.24-1.92 7.93-3.64 6.04-9.34-.17-.52.34-1.26.57-2.25.5-.33.94-.3 1.86.03 1.05.8 1.62 1.3 2.2 2.15 1 1.05 1.98 1.75 3.14 2.7.73.41 1.28.6 1.84.78"/><path fill="#0DE192" d="M215.96 382.4c5.02 1.65 9.6.16 13.83-2.75q10.53-7.26 20.87-14.8c1.13-.8 1.81-2.23 2.95-3.6a303 303 0 0 1 9.76 14.72c.25.39.41.84.66 1.62-.62.38-1.39.62-1.93.37-9.39-4.28-15.74 2.16-22.69 6.4-4 2.44-7.93 5-11.97 7.54a120 120 0 0 1 5.72 8.94c-7.62-4.28-12.7-10.87-17.2-18.44"/><path fill="#68FC52" d="M185.96 269.64c-7.63-2.18-11.35 5.32-17.26 7.33-2.58.88-4.85 2.75-7.16 4.32-3.48 2.37-6.09 2.97-6.68-2.49-.07-.65-1.25-1.18-2.3-1.78.77-7.46 4.04-14.17 10.03-18.33 2.43-1.68 7.98-.67 11.15.96 4.51 2.32 8.15 6.35 12.22 9.99"/><path fill="#8DF740" d="M123.13 174.44c3.25-3.4 5.4.71 8.18 1.07 4.56.58 2.6 3.93 3.42 6.78.01 5.3 3.4 4.79 6.37 4.69 2.9-.1 5.49-.03 4.91 4.3l-.05.8c-5.84-1.11-9.78.46-11.64 6.78-.6 2.06-3.63 3.41-6.03 4.66-3.02-1.96-5.47-2.83-7.33.53-3.82-.55-6.06-3.05-6.84-6.5-1.1-4.91.92-8.97 5.17-11.39 1.8-1.02 4.45-.4 6.6-.97 2.16-.58 5.13-1.17 6.02-2.73 1.2-2.1.27-4.56-3.18-5.05-1.9-.27-3.63-1.72-5.6-2.97"/><path fill="#67FE7B" d="M62.82 371.04a61 61 0 0 1-6.6-6.8c.04-.74-.14-.99-.32-1.24 0 0 .09.02.11-.32a83 83 0 0 0-3.1-6.4c-5.55-10.44-11.13-20.86-16.37-31.23 1.68 1.82 3.65 3.4 4.23 5.4.98 3.36 3.16 4.54 5.95 6.25 4.23 2.6 6.27-1.1 9.47-1.4 1.6 1.98 2.87 3.83 4.5 5.29.95.85 2.47 1.08 3.74 1.59 0 0 .37.13.1.55-2.73 3.63.97 4.93 1.86 7.1.84 2.05 1.82 4.05 2.37 6.14-3.31 1.84-6.26 3.6-9.23 5.39 1.76 3.08 3.63 6.34 5.13 9.6z"/><path fill="#72F0EF" d="M403.89 312.96c1.98-5.78 4.19-11.5 5.89-17.37 1.39-4.82 2.1-9.84 3.25-14.73 1-4.2 2.38-8.33 3.24-12.56.82-3.97 1.67-8.03 1.64-12.05-.06-10.04 2.6-19.96-.56-30.2-2.12-6.86-1.04-14.65-2.55-21.78-1.76-8.27-4.8-16.26-7.24-24.38a12 12 0 0 1-.34-3.63c.25-.55.37-.7.34-.75-.1-.18-.27-.33-.4-.5a12 12 0 0 1-.87-3.62c.78-.38 1.25-.4 1.78-.05 2.72 9.29 5.52 18.17 7.98 27.14 1.57 5.77 2.63 11.68 3.93 17.9.06 1.12.12 1.87.12 2.95-.07.77-.08 1.22-.1 2.07.58 2.18 1.19 3.95 1.83 6.19-.29 11.1-.6 21.74-1.16 32.6-.32 1.1-.4 1.95-.53 3.23-.08 1.8-.1 3.2-.4 4.85-1.4 6.08-2.5 11.9-3.67 18.07-.05.77-.05 1.22-.34 1.9a183 183 0 0 0-3.65 11.12c-.1 1.07-.13 1.78-.5 2.61a87 87 0 0 0-3.56 8.33 10 10 0 0 1-2.25 2.72z"/><path fill="#42F693" d="M111.16 394.97c.33 0 .58.14.84 1 5.02 4.37 9.03 9.76 16.07 9.97 0 0-.05.06.06.28.43.39.75.56 1.07.74 0 0 .38.03.67.3.46.52.7.69 1 .78 0 0 .14.4.14.95.02 1.01.04 1.48-.34 1.96a8.73 8.73 0 0 0-8.02 10.05c-4.58-2.58-9.02-4.8-12.96-7.72-4.55-3.38-8.66-7.37-12.55-11.15 2.21-.92 4.2-1.53 5.78-2.7 1.61-1.21 2.82-2.98 4.6-4.48 1.48.02 2.56.02 3.64.02"/><path fill="#A6FB94" d="M50.12 159.05c3.26-5.38 6.46-10.8 9.82-16.13.9-1.44 2.29-2.57 3.81-3.86-.65 2.79-1.26 5.84-2.76 8.37-6.43 10.9-12.01 22.1-15.1 34.51-2.12 8.53-5.49 16.73-7.75 25.23-1.28 4.8-1.46 9.88-2.44 15.53a41 41 0 0 0-.75 6.6c-.1 9.94-.15 19.88-.57 29.71-1.02-1.65-2.24-3.2-2.26-4.75q-.21-16.6.3-33.29c1.4-5.6 2.3-11.2 3.65-16.67a506 506 0 0 1 7.15-26.9c1.9-6.24 4.57-12.24 6.9-18.35"/><path fill="#11E88C" d="M312 315c2.46-2.8 4.79-1.7 7.46-.1 4.3 2.57 8.52 6.22 14.3 2.6 2.23 1.98 5.77 4.19 5.87 6.55.14 3.23-1.4 7.9-3.85 9.63-8.14 5.75-15.43 1.2-17.78-7.78-.39-1.47-1.29-2.8-2-4.93-1.36-2.48-2.68-4.22-4-5.96"/><path fill="#BBFDB2" d="M36.21 324.99q8.36 15.64 16.7 31.29c1.08 2 2.09 4.04 3.09 6.45-2.44-2.2-5.29-4.49-7.17-7.4-4.52-6.97-9.17-13.97-12.7-21.46a226 226 0 0 1-10.99-28.13c-2.7-8.53-4.47-17.4-6.09-26.23-1.42-7.78-2.06-15.7-2.84-24.05.4-.48.58-.47 1.04-.23a35 35 0 0 1 2.63 5.36c.74 8.18 1.2 15.96 2.35 23.63.5 3.37 2.46 6.52 3.75 10.16.08 1.12.17 1.87.2 3 1.2 3.5 2.48 6.63 3.74 10.11.09 1.08.18 1.8.26 2.83.57.82 1.16 1.33 1.74 2.22.14 1.4.27 2.42.36 3.79 1.2 2.46 2.44 4.57 3.68 7.02.09.77.17 1.2.25 1.64"/><path fill="#57F25B" d="M324 177c-.3-3.39.84-5.62 4.35-6.83 1.81-.63 5.03-1.66 1.92-5.01 4.96-6.98 12.85-11.42 17.96-2.92 1.76 2.91 1.6 8.5-.05 11.6-2.54 4.76-7.2 5.04-12.08 2.86-1-.44-2.4-.19-3.56 0-1.9.32-3.78.86-6.34 1.2a11 11 0 0 1-2.2-.9"/><path fill="#68FC52" d="M310.61 159.08c3.39 4.9 5.72 10.14 3.31 16.17-.84 2.12-1.5 5.22-3.12 5.96-5.3 2.42-10.16 5.2-14.47 9.2-.6.54-3.85-1.8-6.08-3.08 1.43-1.96 3.38-3.46 4.63-5.41 1.37-2.17 2.1-4.74 3.07-7.82a6 6 0 0 0-1.92-2.1s-.04 0-.03-.41c0-1.47 0-2.53.38-3.54 2.6.48 5.13 2.64 6.98-1 3.6 1.93 4.68-.26 5.59-2.76.44-1.67.88-3.34 1.66-5.2"/><path fill="#4FE15B" d="M187.66 304.87c3.4 2.78 6.51 5.42 9.96 8.1a26 26 0 0 1 3.33 4.68c-.13.34-.3.35-.96.25-.97-.41-1.44-.71-1.9-1.01-5.43-4.16-10.93-8.23-16.26-12.5-3.05-2.45-5.82-5.23-8.76-7.83-2.24-1.98-3.9-1.31-5.14 1.23-1.58 3.2-2.9 6.6-4.95 9.49-2.4 3.37-1.3 5.84 1.08 8.23 3 3.01 5.6 5.96 6.17 10.61.75 6.03-5.02 12.86-11.04 11.73-6.84-1.3-11.7-6.31-11.01-12.43.08-.72.77-1.37 1.56-1.87 1.22 5.23 1.71 10.41 8.92 10.26 4.08-.08 7.02-1.75 8.84-5.17 1.67-3.15-.52-5.23-2.6-7.29-2.9-2.88-6.73-5.31-5.89-10.35 0-1.38 0-2.76.37-4.58C160.5 305 161.25 304 162 303c1.2-5.63 5.93-10.73 10.67-10.67 2.41 1.45 4.36 2.56 6.31 3.68 2.8 2.9 5.59 5.81 8.69 8.86"/><path fill="#79EBDA" d="M96.74 402.19c4.3 3.72 8.4 7.7 12.95 11.09 3.94 2.92 8.38 5.14 13.14 8.02 9.22 4.65 17.76 9.25 26.62 13.14 5.95 2.61 12.34 4.22 18.95 6.37 7.4 1.5 14.4 2.92 21.45 4.66.13.97.22 1.61-.1 2.34a54 54 0 0 1-2.89.2c-7.37-1.67-14.99-2.67-22.08-5.17-12.7-4.46-25.47-9.07-37.52-15.01a128 128 0 0 1-33.54-23.56c-.67-.66-1.62-1.02-2.11-1.87 1.37-.37 2.4-.38 3.71-.36.66.08 1.04.11 1.42.15"/><path fill="#BBFDB2" d="M34.25 162.08c-.06.43-.11.86-.47 1.75a51 51 0 0 0-1.51 3.25l-1.35 5.87a108 108 0 0 1-3.36 10c-.68 1.1-1.04 2.1-1.44 3.48-.08 1.42-.13 2.46-.51 3.57a12 12 0 0 0-1.5 3.43c-.09 1.41-.13 2.44-.5 3.55a7 7 0 0 0-1.49 2.5c-.07 2.46-.1 4.49-.4 6.77a90 90 0 0 0-1.6 8.24c-.1 3.43-.15 6.42-.56 9.52-1.04 2.4-1.72 4.67-2.74 6.96l-1.67.08c1.18-9.12 2.15-18.27 3.6-27.35a183 183 0 0 1 4.35-20.65 127 127 0 0 1 6.4-17.07c3.72-8.34 7.82-16.5 12.34-24.68.15 1.74-.1 3.51-.76 5.1-1.5 3.6-3.23 7.12-4.86 10.67-.04.43-.09.87-.43 1.76a61 61 0 0 0-1.54 3.25"/><path fill="#91FF46" d="M145.9 192.38c.07-.48.09-.66.5-1.1 1.07-.23 1.78-.33 2.38-.12 6.8 2.49 9.24.9 9.17-6.42-.05-4.25-.62-8.5-.95-12.74 0 0 0-.5.32-.8 1.44-1.6 2.56-2.9 3.68-4.2 2.2-2.15 4.94-3.98 6.5-6.53 2.85-4.66 1.85-6.47-3.24-8.28-1.26-.45-2.33-1.45-3.62-2.6-.14-.41-.11-.38.15-.25.6-.06.93-.25 1.26-.44 4.8-.77 7.98 1.51 9.84 5.65 2.03 4.48 1.68 8.52-2.92 11.48a33 33 0 0 0-4.64 3.8c-4.8 4.5-4.87 8.4-.3 13.75-.4 1.43-1.48 2.69-1.22 3.5 1.57 4.76.4 8.24-4.55 10.7-3.6 1.79-6.6.52-8.65-2.98-.13-.23-.83-.13-1.46.06a7 7 0 0 1-2.25-2.48"/><path fill="#CAFCB8" d="M115.87 62.96c.28-5.2 5.27-5.11 8.26-6.79 8.89-4.98 18-9.63 27.32-13.72 5.03-2.2 10.67-3.05 16.04-4.46 5.26-1.39 10.61-2.5 15.8-4.13a80 80 0 0 1 28.62-3.87c2.01.08 3.14.18 4.21.6-.13.95-.21 1.6-.75 2.25-4.75.08-9.04.14-13.75.17-3.15.63-5.89 1.29-9.02 1.96-1.45.03-2.51.05-3.92.04-1.14.58-1.94 1.18-3.13 1.83-1.43.11-2.47.18-3.9.2-2.48.63-4.57 1.3-7.02 1.97-1.1.03-1.84.06-2.93.05-1.15.62-1.94 1.26-3.1 1.92-1.1.05-1.82.08-2.9.07-1.18.59-2 1.21-3.17 1.87-1.05.09-1.76.15-2.81.17-1.17.58-1.99 1.2-3.16 1.85-1.07.08-1.78.13-2.81.18-.85.57-1.38 1.15-2.25 1.77-1.04.1-1.74.17-2.79.22-2.47 1.28-4.6 2.57-7.03 3.88-.74.09-1.16.14-1.9.18-.86.56-1.38 1.14-2.2 1.76-.7.11-1.09.19-1.86.25-3.48 1.93-6.6 3.88-9.95 5.85-.23.03-.7.1-1.06.1-2.13 1.3-3.9 2.6-5.9 3.95-.24.04-.7.18-1.07.12z"/><path fill="#9EFE70" d="M209.97 49.1c-5.9.95-11.8 1.8-17.67 2.86-5.03.9-10.07 1.84-15.02 3.12A115 115 0 0 0 165 59.1a375 375 0 0 0-19.74 8.01c-3.31 1.48-6.3 3.72-10.06 5.63-1.52.1-2.52-.06-3.26.3-3.04 1.5-6 3.17-8.96 4.43.28-.94.39-1.85.83-2.06 12.7-6.18 25.34-12.46 38.19-18.33 5.45-2.49 11.32-4.07 17.37-6.07l3-.02c2.12-.66 3.87-1.32 6.06-1.98 6.94-.9 13.45-1.92 20-2.57 1.8-.18 3.73.79 5.27 1.36z"/><path fill="#58FC58" d="M274.17 215.4c2.02-1.7 4.08-3.77 6.48-4.3 8.28-1.85 13.33-7.94 18.97-13.37a37 37 0 0 1 7.04-5.28 50 50 0 0 1-2.73 9.08c-1.17 2.88-2.61 5.65-4.1 8.7-.72.42-1.27.6-2.12.92-1.1 1.38-1.9 2.61-2.94 4.14a205 205 0 0 1-9.8 3.86 177 177 0 0 1-10.8-3.76"/><path fill="#98FD93" d="M325.88 76.04c-11.62-6.58-23.24-13.1-36.11-17.06-5.34-1.64-10.56-3.68-15.84-5.5-.76-.26-1.59-.33-2.38-.48a1223 1223 0 0 0-22.47-3.97c-1.16-.33-1.61-.69-1.79-1.33 3.07-.4 5.87-.5 8.94-.34 1.2.6 2.11 1.04 3.07 1.24 7.21 1.48 14.45 2.84 21.65 4.4 5.68 1.23 11.3 2.7 17.05 4.41 7.52 4.09 15.02 7.67 22.32 11.64 3.46 1.89 6.52 4.51 9.34 6.84z"/><path fill="#49FE60" d="M158.64 311c-.47 5.04 3.35 7.47 6.26 10.35 2.08 2.06 4.27 4.14 2.6 7.29-1.82 3.42-4.76 5.09-8.84 5.17-7.2.15-7.7-5.03-8.6-10.48-.08-.39-.05-.85.35-1.16a49 49 0 0 0 2.57-5.13c1.77-2 3.53-4.02 5.66-6.03"/><path fill="#41EDF1" d="M435.84 216.02c-.03 21.9-.06 43.8-.84 66.02-1.5 4.58-2.24 8.86-2.99 13.14a238 238 0 0 1-4.43 12.52 80 80 0 0 0-3.45 5.92c-1.98 3.8-3.9 7.63-6.12 11.27 5.96-15.98 11.96-31.86 14.04-49.31.88-5.39 2.54-10.36 2.51-15.33-.07-14.34-.84-28.68-1.26-43.02-.04-1.4.4-2.8.86-4.04.73 1.06 1.2 1.95 1.68 2.83"/><path fill="#68FC52" d="m319 159-6.76-1c-.38-1.52-.18-3.04-.47-4.46-2.35-11.5 2.36-14.85 11.1-13.63a8 8 0 0 0 1.44 2.19c4.79 4.37 4.82 6.21.26 10.86-1.92 1.95-3.72 4.02-5.57 6.04"/><path fill="#CAFCB8" d="M122.95 77.82c3-1.6 5.95-3.27 9-4.78.73-.36 1.73-.2 2.93-.17a185 185 0 0 1-12.15 8.9 203 203 0 0 0-38.45 33.72c-4.2 4.7-7.9 9.84-11.98 14.66-1.26 1.49-2.99 2.58-4.87 3.89-.07-1.07.22-2.15.93-3.63 1.82-2.4 3.21-4.41 4.6-6.43 0 0 .04.02.37-.04 1.41-1.7 2.5-3.34 3.63-4.97.03.02 0-.04.33-.08a48 48 0 0 0 3.73-4.88c-.02-.01 0 .02.32-.03.76-.7 1.2-1.34 1.65-1.98l.32-.05c.76-.7 1.2-1.34 1.66-1.97.03.02 0-.03.33-.08 4.77-4.67 9.21-9.3 13.68-13.91.02.01 0-.04.3-.07.78-.67 1.23-1.3 1.7-1.93.02.01 0-.03.31-.06a9 9 0 0 0 1.73-1.92c-.02-.01 0 .02.35-.02 4.45-3.35 8.55-6.67 12.89-10 .24-.03.7-.13 1.05-.13 1.8-1.29 3.24-2.58 4.93-3.89.24-.02.71-.15.71-.15"/><path fill="#67E8E3" d="M403.55 313.14a3 3 0 0 1 2.2.27c.32 1.47.29 2.54.1 3.84-.38.74-.62 1.24-.9 2.08a6 6 0 0 1-.53 2.5c-4.84 7.16-9.07 14.38-13.91 21.17-4.9 6.87-10.4 13.31-15.64 19.94-3.01 2.34-6.03 4.69-9.52 6.99-.47-.05-.73-.32-.6-.63 2.83-3.69 5.54-7.07 8.24-10.46 5.8-6.92 12.26-13.4 17.21-20.87 5.1-7.71 8.74-16.4 13.35-24.83"/><path fill="#31F870" d="M329.8 265.71c1.08 5.29-2.57 8.24-5.25 11.29-1.03 1.17-4.15.51-6.9.74l-1.3 3.85c-1.22-.2-2.32-.39-3.8-.58.04-3.25 0-6.62.92-9.71 2.14-7.19 8.97-9.55 16.33-5.59"/><path fill="#50FCBE" d="M388.94 135.11c-4.98-.58-5.25-5.7-7.98-8.46-2.28-2.3-4-5.17-5.95-8.52-.63-2.56-1.3-4.37-1.58-6.13 4.5 2.52 7.42-.68 10.1-2.67 1.07-.8.32-4.04.74-6.15q5.25 6.4 9.44 12.75c-4.22-3.62-6.44.72-9.28 1.88-2.62 1.08-2.74 2.68-1.21 5.12 2.2 3.48 3.9 7.27 5.8 11.24z"/><path fill="#9CF2F4" d="M418.27 325.06q2.9-5.73 5.86-11.44a46 46 0 0 1 3.37-5.54c-2.27 7.13-4.28 14.61-7.6 21.46a222 222 0 0 1-14.52 25.37c-4.67 7.06-10.38 13.43-16.02 19.77a4 4 0 0 1-.5-1.87c1.01-1.39 2.02-2.77 3.4-4.61 2.27-2.94 4.4-5.29 6.08-7.92 4.7-7.3 9.23-14.72 14.16-22.2 2.03-3.78 3.75-7.44 5.52-11.42z"/><path fill="#CAFCB8" d="M244.05 29.91q16.05 2.56 32.1 5.05c14.7 2.28 28.28 7.9 41.68 14.03.72.33 1.34.88 1.75 1.68a8 8 0 0 1-3 .49c-.74-.1-1.16-.14-1.65-.53a57 57 0 0 0-7.34-3.56c-.73-.05-1.15-.07-1.74-.4a21 21 0 0 0-4.25-1.64 7 7 0 0 1-2.53-.52 8 8 0 0 0-2.48-1.42 3.5 3.5 0 0 1-1.75-.42 21 21 0 0 0-4.22-1.6c-.76-.04-1.19-.06-1.78-.38a19 19 0 0 0-4.29-1.65 19 19 0 0 1-4.52-.55 19 19 0 0 0-4.43-1.42c-2.76-.4-5.18-.78-7.8-1.42a14 14 0 0 0-3.22-.6c-1.79-.11-3.16-.18-4.8-.5a69 69 0 0 0-7.24-1.53c-4.14-.05-7.82-.08-11.7-.32-.74-.33-1.29-.45-1.85-.88-.06-.74-.1-1.16.27-1.65 1.88-.14 3.34-.2 4.79-.26"/><path fill="#72F0EF" d="M435.91 215.56c-.54-.42-1.02-1.3-1.74-2.69a6 6 0 0 1-.23-2.21c-.57-2.54-1.18-4.65-1.83-7.17a189 189 0 0 1-.14-5.82c-.6-1.5-1.21-2.63-1.87-4.12-.12-1.1-.2-1.82-.26-2.87-.56-1.46-1.16-2.59-1.77-4.09-.1-1.1-.18-1.84-.23-2.95-1.52-4.33-3.02-8.3-4.66-12.2-4-9.51-8.07-18.99-11.73-28.47h2.66c2.82 5.7 6.33 11.17 8.33 17.15a912 912 0 0 1 13.4 44.06c.94 3.38.14 7.26.07 11.38"/><path fill="#ABFE7D" d="M115.51 62.98c.86.04 1.36.1 2.14.54a8 8 0 0 1-2.58 2.98c-14.55 9.44-27.53 20.75-39.44 33.32a42 42 0 0 1-5.7 4.85c-.37-.77-.71-1.24-1.05-1.72 2.45-2.88 4.75-5.93 7.4-8.63 4.1-4.15 8.4-8.1 12.67-12.07 1.6-1.5 3.33-2.87 5.05-4.25 4.05-3.27 8.04-6.64 12.25-9.7 2.78-2.01 5.92-3.55 9.26-5.32"/><path fill="#52FF5C" d="M327.96 204.15c-1.32-1.43-2.64-2.86-3.97-5.06-.76-7.5 4.33-9.12 9.36-11.09 1.12-.37 1.9-.73 2.68-1.1.29.18.57.35.96 1.13.51 1.32 1.12 2 1.26 2.75.51 2.93 1.6 6.04.98 8.75-.29 1.24-4.04 1.66-6.2 2.5q-2.54 1.02-5.07 2.12"/><path fill="#B3F8CE" d="M373.06 111.95c.66 1.8 1.32 3.62 1.94 5.81-1.32-.24-3.1-.52-3.8-1.54-8.8-12.82-21.2-21.85-33.04-31.43-3.75-3.03-8-5.42-12.15-8.43.99-.36 2.11-.4 3.94-.3a41 41 0 0 1 6.16 3.28c7.1 5.7 14.03 11.12 20.97 16.55 0 .03.06.03.06.35.65.74 1.3 1.15 2.19 1.77a41 41 0 0 1 3.87 4.24c.61.73 1.23 1.14 2.1 1.74.77.79 1.31 1.39 1.85 2.3.62.74 1.24 1.17 1.88 1.63.02.03.09.08.1.39.63.74 1.24 1.16 1.88 1.62.02.04.1.09.1.4.63.73 1.25 1.15 1.88 1.6.01.02.07.02.07.02"/><path fill="#57F25B" d="M333 188c-4.68 1.97-9.77 3.59-9.04 10.73-1.61-1.31-3.16-3.09-4.82-4.75-3.38-3.4-7.35-2.19-9.25 2.2-2.02 4.67-4.74 9.03-7.82 13.68-1.13.15-1.6.14-2.07.13 1.32-2.81 2.76-5.58 3.93-8.46 1.16-2.85 2.06-5.8 3.07-9.12 3.57-1.42 7.3-2.09 10.63-3.64 1.27-.6 1.6-3.2 2.68-5.18 2.41.6 4.52 1.48 6.62 2.35 0 0 .1 0 .14.36 1.01.22 1.98.07 2.94-.08.75-.05 1.5-.11 2.6.2.39.78.4 1.19.4 1.59"/><path fill="#9CF2F4" d="M327.99 413.1c.43-.04.87-.08 2.03-.1 2.69-.66 4.8-1.12 6.62-2.1 5.86-3.16 11.63-6.5 17.43-9.78a306 306 0 0 1 14.75-9.92c.73.35 1.06.55 1.38.76-4.3 7.12-11.45 10.58-18.5 13.98-7.72 3.72-15.52 7.33-23.55 10.29-5.17 1.9-10.81 2.54-16.72 3.8-.47.04-.48-.04-.42-.35.7-1.09 1.34-1.87 2.3-2.68.75-.05 1.18-.06 1.99-.03 2.15-.6 3.92-1.24 6.06-1.92 1.1-.07 1.83-.1 2.91-.08a30 30 0 0 0 3.72-1.87"/><path fill="#79EBDA" d="M224.09 432.94c8.28 1.83 16.56 3.71 24.86 5.48 4.5.95 9.02 2.08 13.6 2.44 4.33.33 3.43 3 3.38 5.75-1.99.48-3.97.95-6.79 1.37-1.98-.12-3.13-.18-4.19-.58a57 57 0 0 1 3.9-3.95 3172 3172 0 0 0-19.25-4.36c-1.1-.07-1.85-.1-2.82-.41-5.26-2.59-10.4-3.72-16.12-1.93-.65.02-1.01.04-1.45-.25-.17-.93-.28-1.55.01-2.28 1.88-.5 3.38-.9 4.87-1.28"/><path fill="#4DF8DE" d="M388.98 135.49c-.02-.59 0-.8.36-1.23a21 21 0 0 1 4.7 4.17c2.4 4.67 5.1 8.82 7 13.32 2.64 6.28 4.67 12.8 6.97 19.23l-1.77.06c-2.66-4.62-4.88-9.3-7.3-13.88-1.66-3.16-3.86-6.05-5.35-9.28-1.79-3.88-3.07-8-4.6-12.4"/><path fill="#67E8E3" d="M365.02 370.01c-6.87 8.07-16.34 12.15-25.56 16.62a259 259 0 0 1-8.65 4c-5.4 1-10.12 1.79-14.84 2.31-.02-.44-.03-.61.2-.98.47-.72.7-1.25.95-1.78 11.85-1.59 22.36-6.4 32.65-13 1.48.03 2.48.07 3.2-.37 3.92-2.33 7.78-4.79 11.65-7.2z"/><path fill="#98FD93" d="M64.27 341.9c-1.1-.23-2.63-.46-3.59-1.31-1.62-1.46-2.9-3.31-4.63-5.63-1.36-3.21-2.46-5.76-3.47-8.35a1377 1377 0 0 1-11.34-29.49l2.59.87c5 15.36 11.96 29.8 20.44 43.9"/><path fill="#4FE15B" d="M152.63 316.99a16 16 0 0 1-2.15 4.96c-.47-1.2-.61-2.47-.74-3.68-11.05-.93-11-.92-13.8 10.08-1.65 6.47-10.54 9.83-15.75 6.08a9 9 0 0 1 3.94-1.37c5.46-.27 7.92-2.58 8.93-7.84 1.11-5.77 5.6-9.42 10.25-11.7 1.96-.96 5.92 2.16 9.32 3.47"/><path fill="#BBFDB2" d="M68.52 102.98c.7.45 1.04.92 1.22 1.94a33 33 0 0 1-4.14 5.05 12 12 0 0 0-1.77 2.32c-1.78 2.7-3.38 5.1-5.3 7.6a28 28 0 0 0-2.49 3.13 29 29 0 0 1-1.46 2.56c-.78 1.07-1.22 1.73-1.66 2.38 0 0-.08.4-.4.71-1.7 2.33-3.07 4.35-4.44 6.37-.86 1.51-1.72 3.03-3.18 4.73-1.3.17-2.02.16-2.72.14 3.91-6.58 7.46-13.41 11.85-19.66 4.26-6.06 9.39-11.52 14.49-17.27"/><path fill="#79EBDA" d="M160 421.18q8.18 2.34 16.35 4.64c3.94 1.1 7.84 2.4 11.84 3.14 6.62 1.21 13.31 2.04 20.4 3.45.41.85.4 1.28.28 1.93-.35.45-.61.64-1.32.77-2.11-.1-3.8-.15-5.75-.48-9.4-2.16-18.53-4.05-27.8-6.26-3.4-1.35-6.7-2.37-10.3-3.42-.74-.08-1.16-.15-1.66-.5-.74-1.29-1.4-2.28-2.05-3.27"/><path fill="#98FD93" d="M69.13 355.9c-.92-2.02-1.9-4.02-2.74-6.08-.9-2.16-4.59-3.46-1.8-6.9 4.35 5.43 8.22 11.2 12.45 16.7 2.6 3.4 5.82 6.32 8.62 9.58 1 1.16 1.6 2.66 2.1 4.28a13 13 0 0 1-4.07-.67c-5.05-5.75-9.8-11.33-14.56-16.9"/><path fill="#6DFC9A" d="M357.03 75.92c6.98 1.63 10.37 7.87 15.37 12.03 2.81 2.33 5.3 5.07 7.84 7.71a15 15 0 0 1 2.71 4.17c-.12.85-.19 1.05-.57 1.17-4-3.54-7.43-7.36-11.47-10.38-3.75-2.81-6-8.16-11.9-8.03-1-2.45-2-4.53-2.75-6.63z"/><path fill="#8DF740" d="M267 140.35c-.4-4.62-.81-8.89-1.6-13.26-.4-1.81-.4-3.52-.44-5.98A6 6 0 0 0 263 119l-.01-.37c-.38-1.74-.76-3.12-1.09-4.55l.17-.16c5.45 2.78 7.16 8.05 7.73 13.36.63 5.85.05 11.82-.1 18.2-1.37.47-2.65.5-4.32.52-.39-.17-.39-.34-.39-.75.66-1.69 1.33-3.12 2-4.9"/><path fill="#1EED7E" d="M311.66 314.85a44 44 0 0 1 4.3 5.72c-1.31-.5-2.6-1.39-3.96-2.16-1.44-.83-2.95-1.55-4.42-2.31-.76 2.32-2.52 4.85-2.08 6.91.94 4.34.01 7.75-3.08 11-.4-3.83-.23-7.7-.47-11.55-.43-6.58 2.7-9.28 9.7-7.6"/><path fill="#E1FAF7" d="M34.74 259.11q.07-14.9.2-29.8c.03-1.97.3-3.94.8-6.18a7.4 7.4 0 0 1 1.24 3.73c.04 13.37-.02 26.73-.4 40.57-.75.5-1.14.52-1.55.1z"/><path fill="#50FCBE" d="M159.6 421.1a7.4 7.4 0 0 1 2.06 3.38 82 82 0 0 1-11.8-3.87c-6.38-3.42-12.58-6.55-18.78-9.68l-.06-1.74a93 93 0 0 1 9.58 3.74c4.48 2 8.92 4.07 13.4 6.06 1.7.76 3.48 1.36 5.6 2.11"/><path fill="#1EED7E" d="M268.39 308.02a34 34 0 0 1 3.55-5.54c1.11-1.4 2.5-2.6 3.9-4.18 2.35-2.7 4.65-5.03 6.7-7.55 2.27-2.78 3.71-2.06 5.18 1.04.25 1.62.25 3.01.23 4.83-.98-.6-1.94-1.6-3.06-2.79a884 884 0 0 1-16.5 14.19"/><path fill="#4FE15B" d="M328.13 204.5a23 23 0 0 1 4.9-2.47c2.16-.84 5.91-1.26 6.2-2.5.61-2.7-.47-5.82-.98-8.75-.14-.76-.75-1.43-1.17-2.52 4.98.44 5.71 4.73 5.94 8.35.28 4.43-3.98 9.14-7.67 9.3-2.33.1-4.7-.68-7.22-1.41"/><path fill="#9CF2F4" d="M414.04 142.59c-.69.38-1.45.39-2.65.04a50 50 0 0 1-3.52-6.84c-.59-.86-1.19-1.4-1.82-2.12-.03-.2-.13-.57-.12-.91-.86-1.26-1.73-2.17-2.72-3.42-1.83-2.99-3.54-5.65-5.23-8.64 0-.77 0-1.21.13-1.89.44-.43.75-.63 1.05-.83 4.94 8.08 9.88 16.15 14.88 24.6"/><path fill="#68F650" d="M308.58 164.23c-.54 2.56-1.61 4.75-5.38 2.46a48 48 0 0 1-2.16-9.4c-.44-4.04-3.07-5.36-6.52-5.55-2.1-.12-4.24.26-6.42.36l-.16-.16c3.1-3.82 11.6-2.98 13.97 1.6 1.5 2.9 2.27 6.16 3.64 9.13.35.75 1.75 1.02 3.03 1.56"/><path fill="#57F25B" d="M319.35 159c1.5-2.02 3.3-4.09 5.22-6.04 4.56-4.65 4.53-6.49-.26-10.86-.46-.43-.79-1-1.22-1.86 3.61-.9 5.68 1.46 6.78 4.22 1.44 3.58 2.45 7.49-1.87 10.27-2.16 1.4-4.17 3-6.58 4.41-.8-.11-1.26-.12-2.07-.14"/><path fill="#A6FB94" d="m35.04 267.98 1.48-.1a439 439 0 0 1 5.36 25.84c-.4.88-.7 1.1-1.27 1.12a59 59 0 0 1-2.6-7.26c-.34-1.82-.82-3.21-1.03-4.65-.7-4.98-1.3-9.96-1.94-14.95"/><path fill="#8DF740" d="M150.64 162.69c-.32 1.16-.9 2.08-1.48 3-1.02-.94-2.07-1.83-3.04-2.82-.85-.88-1.6-1.86-2.75-3.26a123 123 0 0 1-.1-14.8c.76-1.08 1.28-1.96 1.8-2.83 1.82 3.3 3.42 6.08 1.25 10.46-1.65 3.33-.25 7.85 4.32 10.25m-41.1-2.69c.71.82 1.45 1.76 1.3 2.55-1.33 7.5-.26 9.09 7.3 10.43a11 11 0 0 1 2.65.8c-3.13 4.46-6.76 1.54-9.8.09-5.42-2.6-6.11-9.59-1.45-13.88"/><path fill="#E1FAF7" d="M247.01 47.99c.46.35.91.7 1.67 1.1-.54.33-1.39.85-2.23.86-12.02 0-24.03-.06-36.26-.48.9-.76 2.04-1.15 3.82-1.6 1.08-.11 1.5-.16 2.39-.1 8.86.03 17.26-.05 26.07-.05 1.78.14 3.16.2 4.54.27m7.85 399.74c1.15.07 2.3.13 3.88.24-.24.38-.91 1.01-1.58 1.01-23.3-.02-46.59-.1-70.09-.57.62-.44 1.44-.48 3-.58 1.15-.12 1.58-.2 2.31-.2.72.05 1.14.01 2.02.1 5.18.07 9.9.03 15.09.05 4.8.03 9.14 0 13.94.05 10.79.03 21.11-.03 31.43-.1"/><path fill="#68F650" d="m296 168 .01 3.57c-3.86-2.96-8.36-5.84-11.39-9.83-2.4-3.18.23-6.82 2.94-9.75.38-.05.49.06.49.49-1.3 4.37-1.12 8.23.59 11.35z"/><path fill="#E1FAF7" d="M364.75 369.3c-4 2.72-7.86 5.18-11.78 7.51-.72.44-1.72.4-2.83.35a550 550 0 0 1 22.5-18.26c-2.35 3.33-5.06 6.71-7.9 10.4"/><path fill="#B3F8CE" d="M88.98 399.82c-.66.04-1.62.39-1.93.08a1204 1204 0 0 1-15.02-15.12c-.17-.17-.03-.64-.04-1.37 0-.4.05-.45.4-.45 1.7 1.13 3.07 2.26 4.43 3.38q4.06 3.35 8.16 6.68c.02-.02-.02.02.01.36a42 42 0 0 0 3.97 3.66v.35c0 1.05 0 1.74.02 2.43"/><path fill="#E1FAF7" d="M15.09 231.51c.5-.48.95-.5 1.74-.17.5.83.67 1.3.7 2.12.07 2.43.27 4.49.39 7-.08 3.47-.08 6.5-.3 9.8-.37 1.77-.5 3.25-.64 4.73l-.83.02q-.82-7.33-1.1-14.71c-.12-2.77-.02-5.55.04-8.79M243.88 29.55c-1.28.42-2.74.48-5.07.59-8.13.07-15.38.1-22.63.13l-3.8-.33c1.46-.67 3.37-1.9 5.25-1.87 8.7.18 17.39.7 26.25 1.48"/><path fill="#68F650" d="M187.01 230.47c.49 2.64.76 5.64 1.03 9.42.02 1.22.04 1.66.06 2.1l-.06 2.14c-.04 5.82-.06 10.85-.27 15.88h-.57c-.38-1.72-1.12-3.43-1.1-5.13.12-8.02.45-16.03.91-24.41"/><path fill="#B3F8CE" d="M399.1 117.63c-.24.55-.55.75-1.3 1.15-.87.16-1.29.12-1.73-.14-.03-.21-.16-.62-.18-.94a9 9 0 0 0-1.85-1.75l.02-.01c-3.15-4.24-6.3-8.49-9.89-13.05a12 12 0 0 1-1.47-1.82l.27-.87c2.7 1.56 5.79 3.01 7.84 5.36 3.12 3.58 5.53 7.77 8.3 12.07"/><path fill="#9EFC42" d="M254.03 102h-.77a265 265 0 0 1-9.23-15.69c3.32 3.27 6.62 6.92 9.94 10.56.5.55 1.09 1.03 1.5 2.1a33 33 0 0 1-1.44 3.04"/><path fill="#B3F8CE" d="M357 75.55c-.14.37-.3.38-.9.17-.94-.4-1.47-.59-2.07-1.1-.72-.73-1.38-1.15-2.31-1.77a351 351 0 0 1-12.68-9.76c.85-.35 1.4-.65 1.94-.95 5.35 4.31 12.63 6.26 16.01 13.4"/><path fill="#4FE15B" d="M299.82 210.23a5 5 0 0 1 1.94-.2c-2.03 7.33-7.1 10.3-16.56 9.47 2.96-1.54 6.15-2.73 9.95-4.23a26 26 0 0 0 2.86-4.26c.55-.18 1.1-.36 1.81-.78"/><path fill="#6DFC9A" d="M83.97 372.98c1.17.26 2.33.51 3.85.86a69 69 0 0 1 9.04 7.07c.08 1.53.06 2.34-.3 3.1-3.75-2.7-7.15-5.36-10.68-8.29a76 76 0 0 0-1.9-2.74"/><path fill="#E1FAF7" d="M311 420.08c-1.84.65-3.7 1.75-5.62 1.84-5.45.24-10.93.07-16.87-.32-.49-.8-.5-1.22-.21-1.68.68-.19 1.06-.32 1.85-.32 7.2.21 14 .3 20.8.39 0 0 .01.08.05.09m5.65-29.97c.23.6-.01 1.13-.8 1.83-.94.2-1.35.24-2.22.19-6.56 0-12.65.07-19.09.09a74 74 0 0 1-3.49-1.4c1.51-.28 3.02-.8 4.53-.8 6.86-.07 13.73 0 21.07.1"/><path fill="#68F650" d="M275 191a67 67 0 0 1-3.96-4.48c4.69 1.68 9.43 3.68 14.57 5.73a6.4 6.4 0 0 1-2.44 3.47c-3.1-1.74-5.64-3.23-8.17-4.72"/><path fill="#9EFE70" d="M42.09 140.16c.8-.23 1.5-.22 2.56-.18-.46 6.57-3.34 12.13-8.1 17.02 1.3-3.48 3.02-7 4.53-10.6.67-1.59.9-3.36 1.07-5.25-.22-.38-.19-.56-.06-.99"/><path fill="#8DF740" d="M254.03 102.34c.43-1.16.86-1.98 1.5-3.01 2.29 4.46 4.38 9.13 6.51 14.2.04.4-.07.5-.46.44-1.44-2.13-2.37-4.29-3.62-6.23-.7-1.1-1.95-1.85-2.95-2.75-.33-.77-.66-1.54-.98-2.65"/><path fill="#CAFCB8" d="M340.66 61.99c-.23.45-.77.75-1.95 1.07a17 17 0 0 1-4.75-2.44 52 52 0 0 0-6.3-3.47c-.23-.04-.68-.14-.7-.5l-.03-2.5c2.24 1 4.57 1.84 6.68 3.06 2.35 1.36 4.5 3.06 7.05 4.78"/><path fill="#1EED7E" d="M286.02 333.4c.82-.27 1.94-.47 2.4 0 4.12 4.12 8.45 2.73 13.24.67-3.91 5.78-10.51 5.67-15.64-.68"/><path fill="#6DFC9A" d="M127.92 405.61c-6.9.12-10.9-5.27-15.86-9.42 5.21 2.8 10.46 5.95 15.86 9.42"/><path fill="#57F25B" d="M322.62 166.1c.97 4.46-2.28 4.02-6.47 4.67a69 69 0 0 1 3.3-7.7c1.17.94 1.97 1.95 3.17 3.03"/><path fill="#4FE15B" d="M326.9 185.6a47 47 0 0 1-6.59-2.44 30 30 0 0 1 3.4-6c.8.1 1.31.37 2.08.76a15 15 0 0 1-1.69 3.25c.83 1.22 1.8 2.65 2.8 4.43"/><path fill="#6DFC9A" d="M62.8 371.36c.51-.34 1-.36 2.02-.1a76 76 0 0 1 6.54 7.96c-1.03-.08-1.72-.12-2.4-.16-2.06-2.46-4.12-4.92-6.15-7.7"/><path fill="#2AE2D1" d="M290.71 390.91c1.4.36 2.44.8 3.86 1.6.39.73.42 1.12.44 1.75v.75c-3.72-1-7.44-2.01-11.55-3.02.73-.74 1.85-1.47 3.24-2.4 1.4.33 2.54.87 4.01 1.32"/><path fill="#98FD93" d="M326.62 53.99c.32.87.33 1.59-.01 2.63a92 92 0 0 1-9.73-5.4c.82-.07 1.63-.14 2.86-.22 2.46.93 4.52 1.88 6.88 2.99"/><path fill="#E1FAF7" d="m208.99 434.12.03-1.62c4.87-.32 9.74-.32 14.84.06-1.26.77-2.76 1.16-5.08 1.62-3.82.03-6.8-.01-9.8-.06"/><path fill="#72F0EF" d="M388.55 372.85c.34.47.38.98.43 1.88a42 42 0 0 1-7.62 6.84c0-1.45.35-2.5.7-3.55.57-.47 1.14-.94 2.17-1.73.9-.96 1.37-1.61 1.83-2.27.73-.37 1.46-.75 2.5-1.17"/><path fill="#40FC65" d="M197.76 317.05c.8.14 1.26.44 1.98.87.24.86.24 1.59.21 2.68-.56 2.93-1.1 5.5-1.63 8.07l-.88.07c0-3.84 0-7.68.32-11.69"/><path fill="#0DE192" d="M273.86 383.64c-1.42.25-3.35.73-4.5 0-2-1.29-3.52-3.32-5.28-5.38a85 85 0 0 1 9.78 5.38"/><path fill="#E1FAF7" d="M432.36 294.99c.4-4.09 1.14-8.37 2.25-12.74a86 86 0 0 1-2.25 12.74"/><path fill="#58FC58" d="M265.98 215.02q-1.74-1.64-3.44-3.32l1.06-1.46c2.2 3.03 6.74-1.93 8.36 3.47-1.46.04-2.93-.3-4.98-.49-.69.68-.8 1.2-.92 1.72z"/><path fill="#B3F8CE" d="m96.9 384.06.08-2.84a81 81 0 0 1 9.34 8.09c-.11.53-.24.64-.71.75-.79.05-1.24.08-1.9.04-.2-.07-.6-.2-.66-.5a10 10 0 0 0-2.03-1.62c-.02.02.02-.02-.03-.34-.7-.74-1.36-1.17-2-1.62 0-.02-.03 0-.06-.31-.7-.75-1.34-1.18-2-1.63z"/><path fill="#7DFD4A" d="M121.12 204.37c1.7-3.68 4.15-2.8 6.79-.91-1.83 3-4.17 2.58-6.8.9"/><path fill="#9EFC42" d="M144.97 141.67a6.5 6.5 0 0 1-2.01 2.99 20 20 0 0 1-4.55-4.66l3.7-.04c.92.47 1.84.93 2.86 1.7"/><path fill="#67E8E3" d="M288 419.97c0 .41.02.83.05 1.56-1.72.34-3.46.36-5.72.13-.72-.48-.96-.62-1.25-.67a47 47 0 0 1 5.74-1.83c.9.23 1.1.48 1.18.8"/><path fill="#1EED7E" d="M260.4 314.02a64 64 0 0 1 7.08-5.04 64 64 0 0 1-7.08 5.04"/><path fill="#8DF740" d="M142.03 139.54c-1.02.43-2.11.44-3.97.46-2.49.05-4.22.1-5.95.16l-.14-.16c3.04-3.65 6.52-2.15 10.06-.46"/><path fill="#6DFC9A" d="M89.27 399.96c-.3-.83-.31-1.52.04-2.55a37 37 0 0 1 5.73 4.6c-1.03 0-2.06.02-3.48.05-.93-.65-1.46-1.3-2.29-2.1"/><path fill="#16E1E3" d="M370.5 391.85c-.62-.1-.95-.3-1.37-.8a17 17 0 0 1 4.6-4.25c.24.65.24.83.23 1.02a61 61 0 0 1-3.46 4.03"/><path fill="#1EED7E" d="M288 297.44q1.9 2.56 3.92 6.23a52 52 0 0 1-3.93-6.23"/><path fill="#68F650" d="M257.95 179.6c-5.06.55-4.64-2.07-2.5-5.48a26 26 0 0 1 2.5 5.48"/><path fill="#9EFC42" d="M244 85.61c-2.15.5-4.24.5-4-3.05 1.3.64 2.6 1.67 4 3.05"/><path fill="#68F650" d="M267.38 186.01a3.4 3.4 0 0 1-2.22-1.12 10 10 0 0 1-.15-1.98c1.63.8 3.26 1.58 4.97 2.72-.69.35-1.45.37-2.6.38"/><path fill="#B3F8CE" d="M68.9 379.38c.74-.28 1.43-.24 2.5.05.37.25.47.67.5 1.03l.14 2.5-.08.08a27 27 0 0 1-3.05-3.66"/><path fill="#6DFC9A" d="M111.02 394.68c-.94.29-2.02.29-3.65 0-.83-1.08-1.1-1.87-1.03-2.66 1.07 0 1.78.02 2.5.04.68.78 1.37 1.56 2.18 2.62"/><path fill="#16E1E3" d="M381.68 378.06c.03 1.01-.32 2.06-.72 3.44a5 5 0 0 1-1.6 1.47 19 19 0 0 1 2.32-4.91"/><path fill="#7DFD4A" d="M264.87 182.61c.13.77.13 1.23.12 2.04a6 6 0 0 1-2.79-2.16c.18-.4.55-.46.55-.46.66.1 1.32.18 2.12.58"/><path fill="#57F25B" d="M327.66 166.12c-.02.92-.38 1.76-.74 2.61-.62-.4-1.23-.8-1.9-1.53a5 5 0 0 1 2.64-1.08"/><path fill="#4FE15B" d="M333.35 188c-.35-.4-.35-.8-.36-1.5.9-.28 1.82-.25 2.89.1a5.5 5.5 0 0 1-2.53 1.4m-3.7-1.85c-.6.22-1.57.37-2.56.2.7-.3 1.45-.3 2.56-.2"/><path fill="#2FF37A" d="M331.64 290.08a4 4 0 0 1-1.32 1.9q.2-.9 1.32-1.9"/><path fill="#1EED7E" d="M285.7 330c.3.74.3 1.48.3 2.59a6 6 0 0 1-1.84-2.28c.44-.31.84-.31 1.53-.31"/><path fill="#A6FB94" d="M43.9 297.68c-.84.06-1.6-.2-2.68-.82-.3-.54-.32-.72.05-.9.87 0 1.36-.02 1.86-.04.28.49.56.97.77 1.76"/><path fill="#B3F8CE" d="M108.87 391.76c-.75.28-1.46.26-2.53.24-.35 0-.37.01-.36-.31 0-.76-.02-1.2-.03-1.63.13-.11.26-.22.6-.47.93.53 1.64 1.2 2.32 2.17"/><path fill="#68F650" d="M296.09 172.3q.86.25 1.85 1.44a4 4 0 0 1-1.85-1.45m-33.49 9.49c.15.25-.22.31-.4.36a10 10 0 0 1-2.04-1.68q.99.28 2.44 1.32"/><path fill="#91FF46" d="M184.67 186.1q-.3.49-1.48.92c-.46-.16-.62-.35-.79-.54.65-.15 1.3-.3 2.27-.38"/><path fill="#98FD93" d="M43.09 295.6c-.46.34-.95.35-1.83.14-.37-.23-.37-.7-.37-.7.3-.22.59-.44 1.02-.9.46.22.8.69 1.18 1.47"/><path fill="#60FC57" d="M266.35 214.97c-.17-.55-.06-1.07.25-1.78.54.29.87.76 1.19 1.54-.4.28-.78.27-1.44.24"/><path fill="#9EFC42" d="M161.97 148.66c-.25.43-.59.62-1.18.66.2-.4.65-.65 1.18-.66"/><path fill="#12DBCB" d="M280.87 421.06c.5-.02.74.12 1.03.53-.34.24-.77.3-1.53.28-.19-.36.02-.57.5-.8"/><path fill="#72F0EF" d="M377.87 384.08c-.03-.26.3-.54.93-.95 0 .22-.28.58-.93.95"/><path fill="#BBFDB2" d="M55.97 363.25c.11 0 .3.25.33.63-.18-.05-.22-.22-.33-.63"/><path fill="#4DF8DE" d="M407.08 175.26c.21-.08.37.07.48.25.03.06-.09.2-.27.4-.19-.07-.23-.24-.2-.65"/><path fill="#72F0EF" d="M374.25 387.85c-.28-.22-.28-.4-.28-.88.2-.22.4-.15.94-.05q.13.52-.66.93"/><path fill="#6DFC9A" d="M130.9 407.76c-.33.19-.57.02-.85-.43.22-.08.54.03.84.43m-1.81-1.06q-.3.11-.95-.52.3-.12.95.53"/><path fill="#60FC57" d="M187.14 260.26c.06-.26.44-.26.66-.03s.29.67.29.67l-.13.14c-.32-.15-.6-.34-.82-.78"/><path fill="#68FC52" d="M188.46 260.93c-.37-.03-.44-.47-.47-.7 0-5.25.01-10.28.07-15.77.37-.45.87-.56 1-.39 5.01 6.33 8.88 3.32 13.77-.76 6.32-5.27 13.7-9.24 20.4-14.09 10.54-7.62 20.77-15.68 31.39-23.17 4.16-2.94 9.07-4.8 13.57-7.26 2.97-1.62 6.6-2.7 6.8-7.4a55 55 0 0 1 7.8 4.34c-3.22 4.79-6.57 9.09-12.74 10.47-3.67.82-7.31 2.8-10.37 5.05-13.66 10.08-27.1 20.46-40.63 30.72-6.27 4.76-12.37 9.76-18.9 14.11-3.37 2.24-7.52 3.29-11.69 4.85"/><path fill="#4FE15B" d="M201.14 319.23q.28-.15.72.52-.29.15-.72-.52"/><path fill="#52FF5C" d="M179.41 296a37 37 0 0 1-6.35-3.67c9.44-5.58 19.14-10.5 28.36-16.17 9.4-5.8 18.42-12.23 27.46-18.59a698 698 0 0 0 23.88-17.52c3.98-3.06 7.53-6.68 11.72-10.45 3.23 1.38 3.87 4.7 3.53 8.97-3.04 3.56-5.72 7.18-9.2 9.72-8.64 6.3-17.68 12.1-26.52 18.14-8.88 6.07-17.2 13.21-26.7 18-8.34 4.21-15.07 12.5-26.18 11.57"/><path fill="#49FE60" d="M161.65 303.04a9 9 0 0 1-2.27 2.97 9 9 0 0 1 2.27-2.97"/><path fill="#9EFC42" d="M255.05 105.37c.96.52 2.2 1.27 2.9 2.37 1.26 1.94 2.19 4.1 3.58 6.28.7 1.5 1.09 2.87 1.47 4.61-3.54-.78-5.73-2.9-6.08-6.88-.18-2.04-1.2-4-1.87-6.38m8 13.94q.9.21 1.9 1.37a4 4 0 0 1-1.9-1.37"/><path fill="#9BFF45" d="m189.95 151.05.9-1.51.63.53c-.34.3-.68.6-1.3.95-.28.06-.2-.01-.23.03"/><path fill="#4FE15B" d="M263.05 275.78c1.4-4.1 2.08-4.65 5.68-4.64-1.18 2.01-2.2 3.9-3.43 5.65-.15.2-1.46-.42-2.25-1.01"/><path fill="#12DBCB" d="M288.3 419.92c-.38-.28-.57-.53-1.08-.8 2.45-7.86 5.1-15.6 7.77-23.73.01-.38.02-.88.49-1.12 6.48-.26 12.5-.29 18.67-.09a5 5 0 0 0 1.83-.97c4.71-.79 9.42-1.58 14.57-2.36 3.19 6.19 3.39 12-1.82 17.21-.67.67-.52 2.16-1.1 3.7-1.46 1.35-2.58 2.26-3.7 3.17-.74.03-1.47.05-2.8-.13a37 37 0 0 0-6.21 2.12c-.43.02-.86.03-1.88-.18-7.1-.01-13.63.1-20.13.5-1.1.07-2.11 1.45-3.16 2.23-.39.13-.77.26-1.45.45"/><path fill="#16E1E3" d="M412.17 338.19c-4.6 7.37-9.12 14.8-13.83 22.1-1.69 2.62-3.8 4.97-6.05 7.57a158 158 0 0 1 1.66-11.67c-1.9 0-4.5-.15-7.04.07-.97.08-1.87 1-2.8 1.56-2.81 1.71-5.63 3.43-8.84 5.13 4.84-6.64 10.34-13.08 15.24-19.95 4.84-6.79 9.07-14.01 14.02-20.84 1.33-.05 2.21-.3 3.1-.56l-2.65-2.61c.25-.5.5-1 1.28-1.74 5.3 1.07 6.23-3.8 9.34-5.75a110 110 0 0 1-2.64 16.33c-.35 1.56-1.6 2.9-1.97 4.46-.18.79.7 1.82 1.08 3.14.02 1.18.06 1.97.1 2.76"/><path fill="#67E8E3" d="M353.7 401.12a405 405 0 0 1-17.06 9.77c-1.83.99-3.93 1.45-6.3 2.11.29-.91.77-2.21 1.65-2.61 7.07-3.19 14.21-6.2 21.7-9.27m-29.42 13.85q1.17-1.4 3.35-2.8c.33-.05.36.44.36.68a14 14 0 0 1-3.7 2.12"/><path fill="#16E1E3" d="M385.73 374.06q-.2.92-1.37 1.99a4 4 0 0 1 1.37-1.99"/><path fill="#A4FF42" d="M132.07 140.5c1.77-.4 3.5-.45 5.58-.5 1.82 1.57 3.3 3.14 5.07 4.86.3 4.86.3 9.57.3 14.7.6 2.96 1.28 5.48 1.76 8.05.31 1.66 1.05 4.3.31 4.9-1.98 1.6-4.65 2.31-6.89 3.3 1.04-5.87 2.84-10.67 2.33-15.21-.3-2.74-3.98-5.34-6.55-7.52-5.97-5.07-6.22-5.89-1.91-12.59"/><path fill="#9BFD48" d="M156.65 172.06a84 84 0 0 1 1.3 12.68c.07 7.32-2.36 8.9-9.17 6.42-.6-.21-1.31-.11-2.36-.16.17-4.05-2.41-4.13-5.32-4.02-2.97.1-6.36.6-6.12-4.55 2.26-.04 4.53.27 6.78.7 6.48 1.26 9.77-.67 12.1-6.91.54-1.47 1.61-2.74 2.8-4.16m3.96-5.06q-1.13 1.94-3.3 3.95a18 18 0 0 1 3.3-3.94"/><path fill="#68FC52" d="M188.38 241.95c-.3-.4-.32-.84-.32-1.61.51-.02 1 .3 1.48.61-.3.32-.59.64-1.16 1"/><path fill="#97FF59" d="m65.91 109.9 3.86-4.67c2.09-1.97 4.1-3.56 5.86-5.41 11.91-12.57 24.89-23.88 39.44-33.32 1.07-.7 1.92-1.73 2.95-2.92.09-.32.55-.46 1.15-.55a66 66 0 0 0 5.9-3.9s.47-.07 1.07-.13c3.72-1.98 6.84-3.9 9.96-5.8.4-.08.79-.16 1.8-.27a7 7 0 0 0 2.2-1.74c.42-.06.84-.11 1.78.04 2.74-1.22 4.97-2.66 7.2-4.1.68-.07 1.38-.13 2.74-.22a7 7 0 0 0 2.25-1.78c.71-.06 1.42-.11 2.84-.16 1.53-.6 2.34-1.22 3.16-1.83.7-.07 1.4-.13 2.82-.19a12 12 0 0 0 3.16-1.86l2.9-.1a12 12 0 0 0 3.1-1.9c.74-.02 1.48-.05 2.82.16 2.8-.57 4.99-1.37 7.18-2.16 1.03-.07 2.07-.14 3.7.03a10 10 0 0 0 3.28-2.08c1.06-.02 2.12-.04 3.68.15.71.47.97.66 1.3 1.14a67 67 0 0 0 2.1 4.55L188 49c-1.76.66-3.5 1.32-5.69 1.65-1.39-.1-2.35.13-3.32.35-5.67 2-11.54 3.58-17 6.07-12.84 5.87-25.48 12.15-38.18 18.33-.44.21-.55 1.12-.83 2.06-.03.35-.5.48-1.1.5a36 36 0 0 0-4.92 3.9s-.46.1-1.06.14c-4.69 3.38-8.78 6.7-12.88 10.02 0 0-.02-.03-.32.01-.78.67-1.25 1.3-1.72 1.92 0 0 .02.04-.31.08-.79.66-1.24 1.29-1.7 1.91 0 0 .03.05-.34.08-6.1 3.41-11.31 7.3-13.66 13.92 0 0 .03.05-.3.09a10 10 0 0 0-1.68 1.95s.01.01-.31.05a10 10 0 0 0-1.66 2s-.02-.04-.36 0a51 51 0 0 0-3.7 4.89s.03.06-.3.08c-1.11.35-1.88.67-2.65.99-1.35.55-3.2.72-3.96 1.72-3.43 4.45-6.8 3.31-10.7-.05-.41-.9-.46-1.4-.5-1.88 1.6-2.4 3.2-4.8 5.3-7.55.92-1 1.34-1.67 1.76-2.33"/><path fill="#87FF60" d="M18 240.01c-.2-2.06-.4-4.12-.12-6.61 1-3.46 1.51-6.48 2.03-9.5.06-3 .12-5.98.55-9.52a88 88 0 0 0 1.52-8.38c.04-2.03.07-4.06.45-6.59.73-1.17 1.11-1.84 1.5-2.5.05-1.04.1-2.07.5-3.56a31 31 0 0 0 1.52-3.43c.04-1.03.09-2.07.5-3.57.72-1.49 1.08-2.5 1.44-3.5.95-3.06 1.91-6.12 3.06-9.52 8.18.1 12.07-5.1 15.42-11.2.66-1.2 2-2.04 3.39-3.06-1.97 6.1-4.64 12.1-6.54 18.33a506 506 0 0 0-7.15 26.9c-1.34 5.48-2.24 11.07-4.04 16.74-2.3 5.38-3.99 10.6-5.46 15.88-.78 2.78-1.79 4.54-5.12 3.22-1-.4-2.3-.1-3.45-.13"/><path fill="#9EFE70" d="M72.63 124.03a35 35 0 0 1-4.2 6.04 35 35 0 0 1 4.2-6.04m-24.21 10.95a39 39 0 0 1 4.09-6.1q-1.55 2.94-4.09 6.1m25.55-14.64c.8-.66 1.58-.98 2.65-1.34a24 24 0 0 1-3.3 4.92c-.02-1.05.3-2.14.65-3.58m-15.45-.45c.37.39.42.88.47 1.74-.77.69-1.55 1-2.64 1.36q.61-1.46 2.17-3.1m-23.98 42.13q.18-1.29 1.25-2.86a7 7 0 0 1-1.25 2.86m-1.98 5q.15-1.29 1.2-2.87-.15 1.28-1.2 2.87m20.71-39.09q.16-.91 1.26-2.04-.15.91-1.26 2.04"/><path fill="#6CFF6A" d="M40.61 294.84c.28.2.28.67.28.9l.05 1c3.89 10.14 7.75 20.01 11.64 29.87 1.01 2.59 2.11 5.14 3.31 8.05-2.9.94-4.94 4.63-9.17 2.04-2.79-1.71-4.97-2.9-5.95-6.26-.58-1.99-2.55-3.57-4.23-5.4-.4-.49-.49-.92-.33-1.9a48 48 0 0 0-3.89-7.16 69 69 0 0 1-.4-3.77 6 6 0 0 0-1.73-2.2 27 27 0 0 1-.24-2.94c-.62-4.13.65-8.24-3.72-10.07-.08-.75-.17-1.5.01-2.85.96-1.4 2-2.99 2.28-2.87 3.28 1.45 5-.33 6.76-2.68.43-.57 1.8-.43 2.73-.61a94 94 0 0 0 2.6 6.85"/><path fill="#51FE78" d="M71.87 380.1s-.1-.42-.13-.64c-2.16-2.77-4.28-5.33-6.56-8.2-2.02-3.56-3.89-6.82-5.65-9.9 2.97-1.78 5.92-3.55 9.23-5.39 5.13 5.51 9.88 11.1 14.93 16.84.87 1 1.46 1.82 2.14 3.26a55 55 0 0 1-7.18 8.79 511 511 0 0 1-6.78-4.76"/><path fill="#0EEFF0" d="m433.9 211.08.02 1.61c-.22 1.73-.66 3.14-.62 4.54.42 14.34 1.2 28.68 1.26 43.02.03 4.97-1.63 9.94-2.89 15.25-3.87-4.1-2.55-8.88-1.5-13.7.45-2.02.53-4.13.77-6.2l-1.91-.4c-2 4.98-3.97 9.98-6.04 14.93a7 7 0 0 1-1.99 2.49c-.33-1.8-.66-3.2-.99-4.61.03-1.4.05-2.79.43-4.66.39-1.44.43-2.41.46-3.38l1.09-36.34c-.6-1.8-1.22-3.22-1.84-4.63-.05-.75-.1-1.5.11-2.89.28-4.7 1.66-9.45 0-12.64-4-7.71-2-15.5-2.12-23.27-.02-1.36 1.52-2.74 2.34-4.12 1.3 4.4 3.05 7.28 7.32 7.94.09.73.17 1.47.03 2.76.5 1.79 1.23 3 1.97 4.23a32 32 0 0 1 .26 2.91c.61 1.87 1.25 3 1.88 4.13.05 1.67.1 3.34.12 5.86.6 2.96 1.21 5.07 1.83 7.17"/><path fill="#17F5EA" d="M427.84 183.64c-4.31-.28-6.07-3.16-7.36-7.56-.82 1.38-2.36 2.76-2.34 4.12.13 7.76-1.88 15.56 2.12 23.27 1.66 3.19.28 7.95 0 12.27-1.58-5.58-2.64-11.49-4.21-17.26-2.46-8.97-5.26-17.85-7.98-27.14-2.36-6.78-4.4-13.31-7.03-19.6-1.9-4.49-4.6-8.64-6.93-13.66 3-2.5 6-4.29 9.25-5.94l2.56.96s.1.38.12.9a8 8 0 0 0 1.82 2.12 176 176 0 0 1 3.15 6.5c4.1 9.83 8.17 19.3 12.17 28.81 1.64 3.91 3.14 7.88 4.66 12.2"/><path fill="#0AE6E9" d="M421 273c.68-.95 1.55-1.82 1.99-2.87 2.07-4.95 4.04-9.95 6.04-14.94l1.91.42c-.24 2.06-.32 4.17-.76 6.19-1.06 4.82-2.38 9.6 1.49 14.12-1.7 17.1-7.7 32.99-13.66 48.97.2.6.13 1.03-.34 1.82a239 239 0 0 0-5.58 8.33c-.4-.93-1.28-1.96-1.1-2.75.37-1.55 1.62-2.9 1.97-4.46a109 109 0 0 0 2.64-16.33c-3.11 1.95-4.04 6.82-9.2 5.5-.36-1.05-.33-2.12-.27-3.58.62-1.2 1.22-2.01 2.25-3.17a109 109 0 0 0 3.54-8.4 7 7 0 0 1 .51-2.55c1.47-4.04 2.53-7.67 3.58-11.3 0-.44.01-.89.41-1.75A281 281 0 0 0 421 273"/><path fill="#17F5EA" d="M421 272.62a154 154 0 0 1-4.54 13.3c.77-5.74 1.89-11.57 3.28-17.65.6 1.15.93 2.55 1.26 4.35m-5.27 15.62a80 80 0 0 1-3.24 10.7 80 80 0 0 1 3.24-10.7m-4.15 13.73a42 42 0 0 1-3.13 7.98c.7-2.59 1.74-5.22 3.13-7.98"/><path fill="#41EDF1" d="M421.98 224.02c-.02.78-.03 1.56-.12 2.72a20 20 0 0 1-1.63-5.15 9 9 0 0 1 1.75 2.43"/><path fill="#17F5EA" d="M421.99 223.63c-.5-.49-1-1.37-1.74-2.44a4 4 0 0 1-.15-1.86 21 21 0 0 1 1.89 4.3m-1.32 36.57c.2.74.16 1.7-.18 2.74-.22-.8-.14-1.66.18-2.75"/><path fill="#21EDA0" d="M130.67 410.95c6.6 3.1 12.81 6.24 19.04 10-.78 2.62-2.02 4.55-2.25 6.6-.15 1.36.8 3.67 1.89 4.18 4.72 2.2 9.72 3.78 14.52 5.83 1.54.66 2.75 2.08 4.12 3.15-6.2-2.05-12.59-3.66-18.54-6.27-8.86-3.9-17.4-8.5-26.26-13.1-1.23-5.28 2.12-9.94 7.48-10.39"/><path fill="#3FFA82" d="M78.94 385c2.33-2.76 4.66-5.53 7.02-8.65 3.45 2.3 6.85 4.96 10.6 7.66.34.05.38.05.43.38.7.76 1.34 1.2 1.97 1.64 0 0 .04-.03.08.3.7.77 1.34 1.2 2 1.63 0 0-.04.04.01.35a11 11 0 0 0 2.06 1.6s.4.12.68.49c.9.78 1.54 1.2 2.18 1.61h.02c.27.8.55 1.59.98 2.64-1.23 1.8-2.44 3.57-4.05 4.78-1.57 1.17-3.57 1.78-5.78 2.7-.78.02-1.16-.01-1.82-.09-2.07-1.68-3.86-3.33-6.01-4.98-.36-.01-.34-.02-.36-.37a41 41 0 0 0-4-3.65s.05-.04.01-.36a176 176 0 0 0-6.02-7.67"/><path fill="#7CFF65" d="M38.01 287.58c-.93.6-2.3.45-2.73 1.02-1.75 2.35-3.48 4.13-6.76 2.68-.28-.12-1.32 1.47-2.27 2.5-1.56-3.04-3.51-6.2-4.02-9.56-1.16-7.67-1.6-15.45-2.3-24.1-.85-3.95 2.14-7.88-2.09-10.15 0-3.02 0-6.04.08-9.51 1.24-.43 2.52-.72 3.53-.32 3.33 1.32 4.34-.44 5.12-3.22 1.47-5.28 3.16-10.5 5.15-15.82.36 11.01.26 22.09.4 33.16.02 1.56 1.24 3.1 2.26 4.75.45 2.76.55 5.42.65 8.53a758 758 0 0 0 1.95 15.39c.2 1.44.69 2.83 1.03 4.65"/><path fill="#9EFE70" d="M17.61 250.26c4.46 1.98 1.47 5.91 2.31 9.41-.83-1.1-1.61-2.65-2.67-4.44-.14-1.72 0-3.2.36-4.97"/><path fill="#7CFF65" d="M26.17 297.38c4.43 1.45 3.16 5.56 3.78 9.32a88 88 0 0 1-3.78-9.32"/><path fill="#67FE7B" d="M32.28 316.33a36 36 0 0 1 3.92 6.48 36 36 0 0 1-3.92-6.48"/><path fill="#7CFF65" d="M30.18 310.32q.86.29 1.73 1.5-.87-.26-1.73-1.5"/><path fill="#70FF4F" d="M296.38 168.05c-2.72-1.38-5.07-2.7-7.74-4.22-1.71-3.12-1.9-6.98-.53-11.3 2.17-.53 4.3-.91 6.4-.8 3.46.2 6.09 1.52 6.53 5.56.33 3.03 1.08 6.01 1.8 9.36-1.33 4.04-3.86 1.88-6.46 1.4"/><path fill="#12E5B0" d="M168.4 440.8c-1.78-1.16-2.99-2.58-4.53-3.24-4.8-2.05-9.8-3.63-14.52-5.83-1.1-.51-2.04-2.82-1.89-4.18.23-2.05 1.47-3.98 2.44-6.3 3.92.96 7.69 2.26 11.84 3.52.8.03 1.22.1 2.04.54 3.72 1.38 7.03 2.38 10.35 3.38a493 493 0 0 1 27.42 6.22c-2.03.56-4.06.56-5.69.56-3.77 3.23-4.53 6.62-1.88 10.77l-.04 1.37c-.42.03-.84.07-1.57-.3-1.07-1-1.82-1.58-2.57-2.17z"/><path fill="#2AE2D1" d="M189.85 445.47q1.06.4 2.21 1.76c-.41.4-.84.48-1.59.53a6 6 0 0 1-.62-2.3"/><path fill="#9EFE70" d="M19.56 224a43 43 0 0 1-1.55 9.03c-.51-.4-.67-.86-.85-1.7a47 47 0 0 1 2.4-7.32m2.15-17.76c-.1 2.36-.49 4.97-1.2 7.69.08-2.41.5-4.93 1.2-7.7m5.85-23.29a6 6 0 0 1-1.07 3.01q.05-1.35 1.07-3M25.6 190q-.07 1.36-1.12 2.96.06-1.35 1.13-2.96m-1.99 6.98q-.11.9-1.16 2 .11-.9 1.16-2"/><path fill="#8DFF5A" d="M188.43 49c2.18-2.62 4.8-5.24 7.67-8.12a19 19 0 0 1-1.7-4.6c2.8-1.35 5.21-2.3 7.63-3.23 4.3-.07 8.6-.13 13.83-.15 7.67.09 14.4.12 21.13.53.25 5.54-4.67 5.13-7.3 7.21-1.66 1.33-3.14 2.9-5.14 4.36-3.14.97-7.23-2.36-8.62 2.66-.42.05-.84.1-1.58.08-2.19-.51-4.11-1.48-5.92-1.3-6.55.65-13.06 1.68-20 2.57"/><path fill="#ABFE7D" d="M237 33.05c-6.74-.03-13.47-.06-20.69-.16-.4-.7-.32-1.35-.19-2.3 7.3-.35 14.56-.38 22.26-.37.5.44.55.86.63 1.83.03.55.03 1.02-.3 1zM135.72 53.18a108 108 0 0 1-9.34 5.8 108 108 0 0 1 9.34-5.8m65.9-20.17q-3.02 1.45-7.23 2.9c-.7-.06-.97-.25-1.28-.73a68 68 0 0 1 8.5-2.17m-52.9 14.1a38 38 0 0 1-6.51 4.1 38 38 0 0 1 6.51-4.1m32.94-10.07a33 33 0 0 1-6.41 2.2c1.84-.9 3.93-1.57 6.41-2.2m-56.94 22.08a37 37 0 0 1-5.3 3.87 37 37 0 0 1 5.3-3.87m63.97-24.11a6 6 0 0 1-2.54 2.07c.6-.89 1.4-1.5 2.54-2.07m-22.98 6.04a6.5 6.5 0 0 1-2.46 1.87 6.5 6.5 0 0 1 2.45-1.87m6.01-1.99a6.5 6.5 0 0 1-2.39 1.92 6.5 6.5 0 0 1 2.39-1.92m-11.98 4.04a6.5 6.5 0 0 1-2.45 1.85 6.5 6.5 0 0 1 2.45-1.86m-19.95 8.08q-.3.89-1.57 1.72.3-.87 1.57-1.72m13.98-6.05q-.3.9-1.58 1.75.3-.9 1.58-1.75"/><path fill="#8DFF5A" d="M179.37 51.01a6 6 0 0 1 2.57-.35c-.7.34-1.44.34-2.57.35"/><path fill="#57F25B" d="M297.71 211.15a14 14 0 0 1-2.33 3.84 14 14 0 0 1 2.33-3.84"/><path fill="#67FE7B" d="M316.57 51.16c3.44 1.96 6.57 3.87 10.05 5.81.36.04.81.14 1.13.5 2.3 1.41 4.3 2.45 6.28 3.48 1.35.71 2.7 1.42 4.37 2.16 4.56 3.2 8.8 6.37 13.37 10.06 1 .93 1.66 1.35 2.33 1.77.53.19 1.06.38 1.75.8a48 48 0 0 1 3.03 7.12 5.3 5.3 0 0 1-2.31 2.16c-5.18 2.85-9.03 1-12.97-2.1-2.2-1.74-5.07-2.62-7.64-3.88l-5.59-3c-3.53-2.48-6.59-5.1-10.05-6.99-7.3-3.97-14.8-7.55-21.92-11.66 4.66-1.15 9.12-1.77 10.05-7.49 2.43.38 4.5.72 6.56 1.07z"/><path fill="#7CFF65" d="M308.08 49.87c-.56 5.75-5.02 6.37-9.77 7.18-6.05-1.35-11.68-2.82-17.36-4.05-7.2-1.56-14.44-2.92-21.65-4.4a6.5 6.5 0 0 1-3-1.6c.58-1.1 1.4-1.52 2.12-2.06 3-2.2 7.23-3.24 7.87-7.99.78-.36 1.25-.7 1.71-1.04 2.42.38 4.84.76 7.7 1.5 1.78.71 3.1 1.07 4.44 1.42 1.34.07 2.67.13 4.48.52 1.77.77 3.08 1.2 4.38 1.64.43.02.86.04 1.7.38 1.7.75 3 1.18 4.3 1.6.43.04.85.07 1.68.43 1.1.7 1.79 1.06 2.48 1.42a9 9 0 0 1 2.51.52c1.73.77 3.04 1.2 4.34 1.63.43.03.85.05 1.61.45.39 1.06.42 1.76.46 2.45"/><path fill="#87FF60" d="M265.99 36.97c-.34 4.73-4.58 5.77-7.57 7.97-.73.54-1.54.96-2.39 1.8-2.87.46-5.67.56-8.74.96a11 11 0 0 1-4.87-.36c-1.78-1.08-3.09-2.16-4.45-2.24-4.32-.23-8.65-.1-12.98-.1 1.56-1.46 3.04-3.03 4.7-4.36 2.63-2.08 7.55-1.67 7.3-7.2.46-.4.91-.4 1.87-.18a5 5 0 0 0 2.18-.35c3.68.03 7.36.06 11.58.46 2.83.73 5.13 1.08 7.42 1.43 1.38.07 2.75.14 4.57.52.75.76 1.06 1.2 1.38 1.65"/><path fill="#9EFE70" d="M85.3 109.9c2.02-6.57 7.23-10.46 13.3-13.89q-6.14 6.88-13.3 13.9m18.07-17.92q5.62-4.92 12.3-9.95-5.62 4.92-12.3 9.95M77.3 118.9q1.17-2.38 3.38-4.85a22 22 0 0 1-3.39 4.84m40.02-37.03a24 24 0 0 1 4.32-3.86 24 24 0 0 1-4.32 3.86M99.29 95.92q.21-.89 1.36-1.9a4 4 0 0 1-1.36 1.9m2.01-1.99q.23-.9 1.41-1.88-.22.9-1.42 1.88m-19.95 20.05q.2-.9 1.33-1.94-.2.9-1.33 1.94m1.97-2.03q.2-.9 1.33-1.93-.2.9-1.33 1.93"/><path fill="#0AE6E9" d="M404.95 319.33c.92.53 1.8 1.4 2.68 2.27-.89.25-1.77.5-2.77.43-.05-1 0-1.68.1-2.7"/><path fill="#42F693" d="M356.95 85.01c.6-.5 1.21-1 1.94-1.79 6.02-.76 8.27 4.59 12.02 7.4 4.04 3.02 7.47 6.84 11.47 10.38.66.57 1 1.08 1.45 1.87.02 2.42.77 5.66-.3 6.46-2.68 2-5.6 5.2-10.1 2.67-.37-.05-.43-.05-.47-.37-.65-.76-1.26-1.18-1.86-1.61 0 0-.07-.05-.13-.39a9 9 0 0 0-1.85-1.63s-.07-.05-.13-.38c-.66-.77-1.25-1.2-1.84-1.64-.54-.6-1.08-1.2-1.9-2.28-.88-.9-1.46-1.33-2.04-1.76-1.2-1.24-2.42-2.49-3.94-4.22a15 15 0 0 0-2.13-1.8s-.06 0-.12-.37c-2.16-3.76-3.93-7.15-.07-10.54"/><path fill="#2EFDC3" d="M403.09 132c-2.99 1.8-5.97 3.58-9.03 5.72-1.5-1-2.94-2.34-4.7-3.78-2.24-3.74-3.95-7.53-6.14-11.01-1.53-2.44-1.41-4.04 1.21-5.12 2.84-1.16 5.06-5.5 9.28-1.88.35.01.32.02.35.34.63.8 1.24 1.27 1.85 1.75 0 0 .13.4.16.95a7 7 0 0 0 1.89 2.06 99 99 0 0 1 5.15 8.7c.01 1.23 0 1.75-.02 2.27"/><path fill="#41EDF1" d="M412.07 335.43a73 73 0 0 1 5.54-8.4 91 91 0 0 1-5.11 11.04c-.37-.67-.41-1.46-.43-2.64"/><path fill="#98FD93" d="M308.45 49.9c-.4-.72-.44-1.42-.51-2.46q3.41 1.08 6.99 3.19c-1.99 0-4.05-.35-6.48-.73"/><path fill="#9EFE70" d="M259.79 34.54c-2.04-.1-4.34-.44-6.71-1.14 2.1.06 4.28.48 6.7 1.14"/><path fill="#98FD93" d="M294.84 42.67a11 11 0 0 1-3.83-1.28c1.18.12 2.42.55 3.83 1.28m-6-1.97a11 11 0 0 1-3.82-1.33c1.17.13 2.41.57 3.82 1.32m17.01 5.98a11 11 0 0 1-3.83-1.3c1.17.12 2.41.56 3.83 1.3m-25.82-8.18a9 9 0 0 1-3.98-1.07q1.83.02 3.98 1.07"/><path fill="#9EFE70" d="M266.3 36.95a3.5 3.5 0 0 1-1.28-1.6c.84-.17 1.7-.06 2.78.3-.26.6-.73.94-1.5 1.3"/><path fill="#8DFF5A" d="M240.85 32.7q-.56.6-1.65.58c-.16-.21-.16-.68-.18-.91.53-.12 1.08 0 1.83.33"/><path fill="#98FD93" d="M299.07 44.51q-.9-.08-2.07-1.09.9.08 2.07 1.1"/><path fill="#41EDF1" d="M433.94 210.66a43 43 0 0 1-1.85-6.33 43 43 0 0 1 1.85 6.33m-1.97-12.99q-1-1.13-1.88-3.38 1 1.13 1.88 3.38"/><path fill="#17F5EA" d="M429.84 190.68c-.78-.9-1.51-2.11-2-3.53.84.94 1.44 2.07 2 3.53"/><path fill="#6DFC9A" d="M356.57 85.02c-3.48 3.38-1.71 6.77.45 10.5a615 615 0 0 1-20.9-16.18c2.4.96 5.28 1.84 7.48 3.57 3.94 3.1 7.79 4.96 12.97 2.1m14.54 25.32q.9.18 1.83 1.27-.88-.18-1.83-1.27m-3.96-4.03c.6.12 1.18.55 1.82 1.29a3.5 3.5 0 0 1-1.82-1.3m-3.95-4.04c.6.12 1.17.55 1.8 1.27a3.5 3.5 0 0 1-1.8-1.27m-6.06-6.01q.89.18 1.88 1.27a3.7 3.7 0 0 1-1.88-1.27m11.99 12.06q.88.2 1.82 1.3a3.5 3.5 0 0 1-1.82-1.3"/><path fill="#67E8E3" d="M290.15 419.6c.65-.9 1.67-2.29 2.76-2.36 6.5-.4 13.02-.51 19.81-.47-.37 1.04-1.01 1.82-1.71 2.91-6.86.22-13.66.13-20.86-.08m25.15-2.63c1.5-.83 3.37-1.6 5.47-2.14-1.55.9-3.32 1.54-5.47 2.14"/><path fill="#12DBCB" d="M194 445.96c-2.67-3.87-1.91-7.26 1.86-10.5 1.63 0 3.66 0 5.95-.27a17 17 0 0 1 5.86.29c4.23.7 7.92 1.02 11.61 1.32.37-.01.73-.03 1.65.28 5.17 1.14 9.8 1.98 14.44 2.71.49.08 1.1-.54 1.65-.84.73.03 1.47.07 2.66.48 3.69 1.9 6.92 3.44 10.14 4.97a6.6 6.6 0 0 1-4.37 1.58c-6.12.07-12.24-.07-18.36.12-1.39.04-2.75 1.06-4.12 1.63-4.34.04-8.68.08-13.62-.3a208 208 0 0 0-15.35-1.47"/><path fill="#2AE2D1" d="M223.43 447.83c.91-.67 2.27-1.7 3.66-1.73 6.12-.19 12.24-.05 18.36-.12a6.6 6.6 0 0 0 4.37-1.58c-3.22-1.53-6.45-3.06-9.77-4.93a382 382 0 0 1 18.8 3.98 57 57 0 0 0-3.9 3.95c-10.4.4-20.73.46-31.52.43m-4.22-11.33q-5.41.01-11.12-.99c.17-.53.43-.72.78-1.17 3.1-.17 6.1-.13 9.52-.05.54.66.65 1.28.82 2.2m17.57 2.19c-.32.57-.92 1.19-1.41 1.11-4.64-.73-9.27-1.57-14.17-2.71 5.18-2.12 10.32-.99 15.58 1.6m79.19-45.74c-.54.67-1.1 1.06-1.81.95-.12-.9-.1-1.29-.07-1.68.41-.03.82-.06 1.54-.08.31.2.32.37.34.81"/><path fill="#ABFE7D" d="M65.6 109.97q-.16.9-1.27 1.99.16-.9 1.27-1.99"/><path fill="#50FCBE" d="M174 428.37a61 61 0 0 1-9.9-3.04q4.8 1.02 9.9 3.04"/><path fill="#4DF8DE" d="M403.36 132.14c-.26-.66-.24-1.18-.13-2.08a8 8 0 0 1 2.7 2.7c-.77.06-1.53-.21-2.57-.62m4.51 3.66q-.9-.31-1.8-1.6.91.3 1.8 1.6"/><path fill="#50FCBE" d="M397.98 120.7q-.96-.26-1.88-1.51c.41-.3.83-.25 1.56-.17.32.47.33.91.32 1.68"/><path fill="#9EFE70" d="M224.55 45c4.77 0 9.1-.13 13.42.1 1.36.08 2.67 1.16 4.05 2.16-8.36.46-16.76.54-25.62.51.92-5.13 5-1.8 8.15-2.77"/><path fill="#2AE2D1" d="M193.98 446.24c4.94.06 9.86.4 14.91 1.11-4.58.4-9.3.45-14.5.37-.44-.48-.43-.84-.41-1.48"/><path fill="#6DFC9A" d="M78.65 384.86a101 101 0 0 1 6.3 7.84c-2.7-1.9-5.42-4.13-8.13-6.36-1.36-1.12-2.72-2.25-4.43-3.38-.39-.71-.43-1.43-.5-2.5 2.14 1.18 4.3 2.71 6.76 4.4m6.35 8.52q1.92 1.14 3.94 3.32-1.94-1.14-3.95-3.32"/><path fill="#50FCBE" d="M395.9 117.7q-.9-.24-1.83-1.44.9.24 1.82 1.44"/><path fill="#6DFC9A" d="M354.03 74.63q-.9-.17-1.98-1.26.9.15 1.98 1.26"/><path fill="#67E8E3" d="M313.63 392.13c.43.47.4.86.37 1.54-6.02.31-12.04.34-18.52.35-.5-.4-.52-.78-.57-1.45a304 304 0 0 1 18.72-.44"/><path fill="#98FD93" d="M333.96 60.62a29 29 0 0 1-5.98-3.1q2.85 1.05 5.98 3.1"/><path fill="#6DFC9A" d="M98.93 385.7q-.9-.17-1.94-1.3.9.2 1.94 1.3m2.07 1.94q-.93-.16-1.97-1.29.9.18 1.96 1.3m2.06 1.95a4 4 0 0 1-1.98-1.31q.92.17 1.98 1.3m2.93 2.1c-.65-.1-1.28-.5-1.99-1.22.38-.33.83-.36 1.62-.4.35.42.37.86.37 1.62"/></svg>